<?xml version="1.0" encoding="utf-8"?>
<!-- Generator: Adobe Illustrator 22.1.0, SVG Export Plug-In . SVG Version: 6.00 Build 0)  -->
<svg version="1.1" id="Layer_1" xmlns="http://www.w3.org/2000/svg" xmlns:xlink="http://www.w3.org/1999/xlink" x="0px" y="0px"
	 viewBox="0 0 1000 1000" style="enable-background:new 0 0 1000 1000;" xml:space="preserve">
<style type="text/css">
	.st0{fill:#FAD7E7;}
	.st1{opacity:0.8;}
	.st2{fill:#C05293;}
	.st3{fill:#DB74AE;}
	.st4{fill:#56113B;}
	.st5{fill:#ECA5C9;}
	.st6{fill:#331126;}
	.st7{fill:#E38DBB;}
	.st8{fill:#FFFFFF;}
	.st9{font-family:'Lobster-Regular';}
	.st10{font-size:153.7051px;}
	.st11{font-size:229.1503px;}
	.st12{letter-spacing:2;}
	.st13{font-size:281.4268px;}
	.st14{letter-spacing:-11;}
	.st15{font-size:93.4391px;}
	.st16{letter-spacing:-4;}
	.st17{display:none;}
	.st18{display:inline;}
</style>
<g>
	<path class="st0" d="M973,501.9c0,150.5-70.7,284.4-180.7,370.4c-4.6,3.6-9.2,7.1-13.9,10.5v0c-0.2,0.2-0.4,0.3-0.6,0.4
		c-0.3,0.2-0.6,0.5-1,0.7c-3.6,2.6-7.2,5.1-10.9,7.6c-47.7,32.2-101.6,55.9-159.6,68.9c-1,0.2-1.9,0.4-2.8,0.6
		c-3.4,0.7-6.8,1.5-10.3,2.1c-0.4,0.1-0.8,0.2-1.2,0.2c-1.7,0.3-3.5,0.6-5.2,1c-7.6,1.4-15.2,2.5-22.9,3.5c-8.8,1.2-17.6,2-26.6,2.7
		c-11.3,0.8-22.6,1.2-34.1,1.2h-0.2c-8.1,0-16.1-0.2-24.1-0.6c-2-0.1-4-0.2-6-0.4c-1.9-0.1-3.9-0.3-5.9-0.4
		c-1.3-0.1-2.6-0.2-3.9-0.3c-1.5-0.1-2.9-0.2-4.4-0.4c-1.2-0.1-2.5-0.2-3.7-0.4c-5.6-0.6-11.2-1.2-16.8-2c-0.3,0-0.6-0.1-0.9-0.1
		c-67.9-9.5-131-33.5-186.3-68.7c-0.1-0.1-0.2-0.2-0.4-0.2c-6.4-4.1-12.7-8.3-18.8-12.7C111.6,800.5,33.2,660.3,33.2,501.9
		C33.2,242.4,243.6,32,503.1,32c14.5,0,28.9,0.7,43.1,2C785.5,55.7,973,256.9,973,501.9z"/>
	<g class="st1">
		<path class="st2" d="M697.8,585.5L697.8,585.5l-1.5,5.4l-5.4,7.2l-14.3,9.1c0,0-30.1,22.7-41,30.8c-11,8.1-39.7,38.9-54.3,55.7
			c-14.7,16.9-9.5,36-5.1,49.2c4.4,13.2,2.9,25.7,2.2,36.7c-0.7,11,22,19.8,30.8,30.8c8.8,11,1.5,30.8,1.5,30.8
			c11.9,14.4-0.7,38.1-14.7,50.6c-13.9,12.5-8.1,41.1-4.4,52c1.2,3.7-1,11.5-4.6,20.4c-7.6,1.4-15.2,2.5-22.9,3.5
			c-8.8,1.2-17.6,2-26.6,2.7c-11.3,0.8-22.6,1.2-34.1,1.2c-10.6-5.1-10-14.7-15.9-15.4c-6.6-0.7-10.3-37.4,0-51.3
			c10.2-13.9,66.7-61.6,74.1-69c7.3-7.3-5.9-27.1-5.9-27.1l-59.4-51.3c0,0-23.4-26.4-18.3-59.4c5.1-33,77.7-99,77.7-99l12.9-1.5
			l5-0.6l16.7-2c7.9,0,51.5-5.9,60.3-5.9c8.8,0,41.9-8.4,41.9-8.4L697.8,585.5z"/>
		<path class="st3" d="M579.1,99.2c0,0,71.9,44.7,105.2,128.9c0,0,0.1,13.6-9.1,36.3c0,0,0.7,13,9.1,16.9c0,0,5.4,6.3,9.3,27.1
			c0,0,7.2,11.6,40.6,34.3c0,0,25.6,21.3,16.9,41.1c0,0-2.4,7.2-16.4,19.8c0,0-2.9,15.9,5.3,19.8c0,0,12.1,11.1,6.8,24.6
			c0,0-9.7,9.7-9.2,15.9c0,0,8.2,9.2,2.4,23.7c-5.8,14.5,5.8,31.9,5.8,31.9S764,540,755,562.3c0,0-7.2,21.2-37.1,21.9
			c0,0-20.4-0.2-31.5,3.9c0,0-14.7,8.8-121.3,14.7c0,0,9.5-7.3,1.7-31.8c-7.7-24.6-26.8-34.9-26.8-34.9s-20.9-10.1-25.5-32
			c0,0-3.6-26.8,3.2-39.1c6.8-12.3,13.2-22.7,23.6-29.6s39.6-41.7,42.8-53.9c3.3-12.2-1.6-24.9-1.6-24.9s-8.2-15.5-32.2-27.3
			c-24-11.8-33.8-18.7-33.4-29.8c0.2-5.3,2.1-12.1,7.6-19.1c6.2-7.9,16.1-17.5,15.2-26.1c-1.6-16.7,5.7-23.2,5.7-23.2
			s9.4-15.9,14.3-18.3s12.2-2.4,16.7-19.2c4.5-16.7,12.2-34.2,10.2-55.4c0,0,3.8-14,1.2-24.5C585.3,103.4,579.1,99.2,579.1,99.2z"/>
		<path class="st4" d="M546,864.2c-15.7,16.1-51.7,58.2-51.7,58.2c11,24,5.8,29.1,5.8,29.1C534.4,955.4,531,967,531,967
			c2.4,1,4.5,2.2,6.4,3.6c-11.3,0.8-22.6,1.2-34.1,1.2h-0.2c-8.1,0-16.1-0.2-24.1-0.6c-2-0.1-4-0.2-6-0.4c-1.9-0.1-3.9-0.3-5.9-0.4
			c-1.3-0.1-2.6-0.2-3.9-0.3c-1.5-0.1-2.9-0.2-4.4-0.4c-1.2-0.1-2.5-0.2-3.7-0.4c-5.6-0.6-11.2-1.2-16.8-2c-0.3,0-0.6-0.1-0.9-0.1
			c-67.9-9.5-131-33.5-186.3-68.7c-0.1-0.1-0.2-0.2-0.4-0.2c-6.4-4.1-12.7-8.3-18.8-12.7C111.6,800.5,33.2,660.3,33.2,501.9
			C33.2,242.4,243.6,32,503.1,32c14.5,0,28.9,0.7,43.1,2c2.3,3.1,5.5,2.3,5.5,2.3c13.5-1.5,19.5,8.8,20,18.4c0.4,9.6,5,13.5,5,13.5
			c13.7,7.6,13.7,17.5,13.7,17.5c6.7,10.5,3.2,13.6,3.2,13.6c4.9,5.5,6.6,10.9,6.7,15.7v0.1c0.2,8.3-4.5,14.7-5.9,17.4
			c-2.1,4.2-1.9,9.4-1.9,9.4c2.1,15.4-8.9,48.1-10.1,53.2c-1.2,5-7.4,13.8-11.2,13.7c-3.9-0.1-9.3,7.1-9.3,7.1s-2.3,5.2-9.7,12.9
			c-4.4,4.6-6.5,11-7.5,15.3v0.1c-0.6,2.8-0.7,4.7-0.7,4.7l-4.3,9.2l0,0.1l-4.2,9.1l0,0.1l-0.1,0.1l0,0.1l-2.5,5.5v0l0,0.1l-4.4,9.4
			c0,0-6.3,10.9-5.6,20.2c0.8,9.4,7.1,17.8,29.9,27.5c22.7,9.7,35.2,26.5,35.2,26.5s5.6,13.8,2.2,24.4c-3.3,10.6-25,36.3-25,36.3
			s-10.1,11.9-22.5,20.5c-12.4,8.6-19.8,26.9-19.8,26.9s-8.6,19.6-2.1,42.4c6.5,22.9,23.5,30.5,23.5,30.5s19.3,11.1,25.9,28
			c5.5,14.4,4,27.9,3.4,31.5v0c-0.1,0.6-0.2,1-0.2,1s-1.2,1.7-3.3,4.5l0,0c-10.2,13.4-40.3,52.8-54.2,60.5
			c-16.8,9.3-29.1,32.8-30.8,39.1c-1.7,6.4,0.8,32.7,18.6,45c17.8,12.3,40.3,25,46.7,32.7c6.4,7.6,10.2,17.8,18.7,28
			c8.5,10.2,8.5,21.6,6.4,28.9C573.1,843.8,561.7,848.1,546,864.2z"/>
		<path class="st4" d="M789.3,838.7c0,0,0,13.1-3.2,14.4c-3.2,1.4-5.3,7-5.3,7c0,7.4-11.3,21.2-14.1,24c-1.8,1.8-0.3,3.4-1,7.3
			c-47.7,32.2-101.6,55.9-159.6,68.9c-1,0.2-1.9,0.4-2.8,0.6c-3.4,0.7-6.8,1.5-10.3,2.1c-0.4,0.1-0.8,0.2-1.2,0.2
			c-1.7,0.3-3.5,0.6-5.2,1c-7.6,1.4-15.2,2.5-22.9,3.5c2.7-5.7,5.3-11.4,5.4-17.6c0.3-13.3-4.1-23.5-4.1-23.5
			c-1.9-22.7,31.9-51.7,34.8-56.2c2.9-4.6,1.7-17.2,1-19.9c-0.7-2.6-3.4-7.1-3.7-10.9c-0.2-3.7,2.4-9.7,1.2-12.9
			c-1.2-3.3-9.5-3.6-14.9-9.7c-5.4-6.1-5.7-15.6-5.7-15.6c-11.5-6.8-9.9-14.6-10.1-18.2c-0.3-3.5-3.7-3.8-9.5-12.7
			c-5.9-8.9,3.4-24.1,3-29.3c-0.4-5.2-4.7-3.9-4.7-3.9c-12.5,6-19,4.6-19,4.6c6.4-3.6,7.7-6.2,7.7-6.2c-0.3-5.2,3.3-7.7,3.3-7.7
			c15.3-72.2,147.5-137.3,147.5-137.3c-1.4,7.4-1.3,17.2-1.3,25c0,7.8,25.5,28.8,25.5,28.8s29.4,28.5,36.3,40.8
			c6.9,12.3,4.8,27.3,3.9,34.1c-0.9,6.9-10.8,21.9-10.8,21.9c0.9,5.4-5.4,10.2-5.4,10.2c-0.9,6.6-2.7,10.2-6.6,13.5
			c-3.9,3.3-1.8,8.4-1.8,14.7c0,6.2-3.9,8.1-3.9,8.1c-0.9,12-4.5,22.8-4.5,22.8c-1.7,10.5,7.9,15.3,7.9,15.3
			c21.8,6.2,50-5.2,51.5-3.4C788.5,824.5,789.3,838.7,789.3,838.7z"/>
		<path class="st5" d="M650.2,476c0,0,26.2,6.7,62.4,8.1c0,0,0.5,9-6.7,21c0,0,24.8,30.5,27.6,42.9c0,0-5.7,11.4-16.7,18.1
			c0,0-0.8,2.8,1.5,4c0,0-29,15.9-130.9,18.7c0,0-5.5-9.3-8.2-27.7c-2.2-14.8-25.8-29.4-30.5-31.5c0,0-13.9-4.9-18.7-24.1
			c-2.8-11,2.9-30.6,2.9-30.6s8.1-25.2,24.2-36.1c13.9-9.4,21.5-30,38.1-43.5c16.7-13.5,28-39.3,34.9-32.7
			c6.9,6.6,20.2,51.7,21.1,56.1c0.9,4.4,9.8-12.9,9.8-12.9s0.9-21.4-4.1-31.8c-5-10.4-5.3-11-6-23.3s0.6-15.7-4.1-28
			c-4.7-12.3-8.2-18.2-6.6-19.8c1.6-1.6,8.8,0.6,12.6,0c3.8-0.6,6.6-4.1,11-2.5c4.4,1.6,52.4,36.8,63.1,44
			c10.7,7.2,20.4,21.1,18.9,28.9c-1.6,7.9-3.8,12.6-7.9,17.6c-4.1,5-9.1,11-20.8,17.6c0,0-2.8,1.3-5,6.6c-2.2,5.3-8,22.6-15.3,28
			c-7.2,5.3-14.2,6.9-17.3,10.1c-3.1,3.1-13.2,7.2-32.7,11c0,0-2.2,0.6-2.5,5c0,0-1,2.2-3.7,2.7c-2.8,0.5,2.1,5,2.1,5s5,3,5.4,1.3
			C648.5,476.7,648,475.5,650.2,476z"/>
		<path class="st4" d="M523.5,282.1c0,0,43.2-56,105.9-13.4c0,0,10,4.8,12.8-4.4c0.6-1.9,0-4-1.4-5.3c-6.6-6.5-29.5-25.4-70.7-23.3
			c0,0-19.2,0.8-30.1,12.1L523.5,282.1z"/>
		<path class="st4" d="M675.1,265.8c0,0,2.4-5.3,3.9-7c1.5-1.8,6.5-8.9,7.6-12.1c1.5-4.3,3-8.8,0-17c-1.1-3.1-3.4-4.3-3.2-3.7
			c0.3,0.7-0.2,3.7-0.2,3.7s-0.6,9.1-3.3,12.4c-2.7,3.3-6.2,8.2-6.3,10.9C673.6,255.7,673.5,262.4,675.1,265.8z"/>
		<path class="st6" d="M680.4,279.7c0.3-0.5,1-0.7,1.5-0.4c3.4,2,15.6,7.2,23.8-0.6c0,0-5.7,17.5-21.8,10.3c-0.1-0.1-0.2,0-0.4,0.1
			c-0.9,0.3-5.1,2.2-2.6,8.5C681,297.6,676.6,287.2,680.4,279.7z"/>
		<path class="st6" d="M679.1,290.1c0,0,0.5,12.7,9.3,10.7c8.8-2,5.4-12.7,5.4-12.7l-7-2.5L679.1,290.1L679.1,290.1z"/>
		<path class="st6" d="M645.2,286.7c0,0-5.7,9.7-14.7,10.8c0,0-30.3-11.5-72.2,26.2C558.3,323.7,584.5,270,645.2,286.7z"/>
		<path class="st6" d="M617.8,307.6c0,7.2-5.1,13-11.3,13c-6.2,0-11.3-5.8-11.3-13c0-7.2,0-12,11.3-13
			C617.9,293.6,617.8,300.4,617.8,307.6z"/>
		<path class="st7" d="M371,289.5c0,0,19.9-42.6,15.1-82.9c-0.2-1.5-0.4-2.9-0.6-4.4c-0.3-1.6-0.6-3.3-0.9-4.9c0,0,0.7-4.4,4.1-2.4
			c0,0,0-7.5,7.1-9.5c0,0,8.8-10.5,16.9-5.8c0,0,5.4,0.3,7.8-3.1c2.4-3.4,17.3-2.4,14.9,8.8c0,0,10.5-2.4,8.5,4.1
			c0,0,9.5-2.4,10.8,2c0,0,8.8-1.6,10.7,3.8c0,0,3.8,1.3,3.2,7.3c0,0,1.5,2.9,1.3,5.7c0,0,4,0.7,3.1,7.8c0,0,2.8,0.7,1.6,9.4
			c0,0,1,4.2-0.4,7.9c0,0,2.6,3.3,0.8,4.8c-1.8,1.5-4.1,3.8-4.9,5.8c-0.8,2,0.4,5.4-1.5,6s-2.3,5.1-7.2,8.3c-1.3,0.9-1.7,4-3.7,4.9
			c-1.9,0.9-12.4,0.5-12.4,0.5s-4.1,1.7-4.8,3.7c-0.7,2-6.7,3.7-6.7,3.7s-3.1,5.5-10.6,3c0,0-32.8,12.6-44.1,22.3
			S371,289.5,371,289.5z"/>
		<path class="st7" d="M353.1,312.1c0,0-34.8,19.5-51.6,49.5c-0.6,1.1-1.2,2.2-1.8,3.3c-0.6,1.3-1.2,2.5-1.8,3.8c0,0-2.7,2.7-4-0.4
			c0,0-3.7,5.1-9.6,3c0,0-11.3,2.8-14.5-4.5c0,0-3.6-2.9-6.9-1.8c-3.3,1.2-13.1-7-5.9-13.5c0,0-8.4-3.6-3.8-7c0,0-7.7-3.1-6.4-6.8
			c0,0-6.9-3.3-5.5-8c0,0-2-2.8,1.4-6.6c0,0,0.4-2.7,1.9-4.6c0,0-2.4-2.5,1.7-6.9c0,0-1.5-1.9,3.5-7.2c0,0,1.4-3.4,4.2-5.2
			c0,0-0.1-3.6,1.9-3.7s4.7-0.5,6.3-1.5c1.6-1,2.4-3.9,4-3.4c1.6,0.5,4.5,1.3,5.3,0.3c0.8-1.1,0.7-3.2,2.4-2.8s11.2,7.1,11.2,7.1
			s3.7,0.9,5.2-0.1s6.5,0.8,6.5,0.8s8.6-4.7,12.5,0.8c0,0,28.8,7.6,41.4,6.6C363.4,302.2,353.1,312.1,353.1,312.1z"/>
		<path class="st7" d="M363.7,293.5c0,0-0.9-13.7,3.9-19.1c4.9-5.4,8.4-19.3,6.4-24.2c-1.2-3-0.2-7.4,2.5-9c2.7-1.6,1.8-7.9,2.3-14
			c0.7-8.6-8.2-9.6-5.4-15c5.8-11.1-1.4-14.8-2.8-21.8c0,0,0-5.7-7.6-6.1c0,0,2.4-5.4-8.4-4.3c0,0-0.6-6.1-9.1-5.2
			c0,0-6.6-7.4-11.7-3.6c0,0-5.3-4.5-9.1-2.1c0,0-3.2,0.9-4,2.6c0,0-3-4.5-7.4-3.2c-4.5,1.3-6.6,6.8-6.6,6.8s-9.8-2.1-11.1,7
			c0,0-2.8,3.8-6,4c-3.2,0.2-5.5-1.1-6.8,5.3c0,0-7.4,0-7.2,7.2c0,0-6.6,8.7-5.1,14.2c0,0-2.8,1.9-1.9,8.9c0,0-4.3,5.4-2.1,8.2
			c0,0-4,12.6,0.9,14.1c0,0-1.1,7,6.4,10.6c0,0,0.4,4.9,3.8,9.6c3.4,4.7,5.3,7.7,6.8,11.9c1.5,4.3,7,7.9,9.4,6.4
			c2.3-1.5,4.2-2.1,6.9-1.3c4.3,1.3,2.7,4.9,7,5.9c4.3,1.1,6,2.3,10,2.3c4,0,14-1.5,18.3-0.2s23,6.8,24.9,6.3
			C362.6,295.4,363.7,293.5,363.7,293.5z"/>
		<path class="st7" d="M365.7,312.4c0,0-15.3,21.1-18.3,22.6c-4.8,2.4-12.4,8.6-14,12.1c-1,2.2-3.8,3.9-6.1,3.3
			c-2.2-0.6-7,4.4-9.3,8.3c-2.3,3.9-0.9,9.4-4.6,12.4c-3.7,3.1-7.3,6.6-6.9,10.2c0,0-5.7,3.4-2.5,9.8c0,0-4.1,1.5,2.1,6.7
			c0,0-2.9,3.5,2,7.5c0,0-0.5,7.3,4.1,8.1c0,0,0.4,5.1,3.6,6c0,0,2.1,1.3,3.4,0.8c0,0-0.9,3.9,2.1,5.6c3,1.7,7,0,7,0
			s3.9,6.3,9.4,2.2c0,0,3.5-0.5,5.2,1.1s2.3,3.5,6.3,0.9c0,0,3.9,3.9,7.6,0.1c0,0,8-1,10.2-4.7c0,0,2.4,0.5,5.7-3.6
			c0,0,5.1-0.5,5.5-3.1c0,0,8.8-4.4,7-7.8c0,0,4.3-3.1,2.3-8.9c0,0,2.4-2.8,3.1-7c0.7-4.2,1.3-6.8,2.8-9.8c1.5-3,0.5-7.8-1.5-8.3
			s-3.3-1.2-4.2-3c-1.5-3,1.8-6.6,0.1-9.4s0-3.8-2.1-5.9c-2.1-2.1-6.9-7.9-8.4-10.8c-1.5-2.9-7.9-34.3-9.1-35.1
			C367.3,311.9,365.7,312.4,365.7,312.4z"/>
		<path class="st7" d="M378.1,310.9c0,0,6.6,16.9,6.9,23.5s8.5,15.5,10.5,17.7c2.1,2.1,6.2,10.1,5.5,12.9c-0.7,2.7,1.4,7,6.2,9.9
			s12,0.8,15.8,5.4c3.8,4.6,10-1.3,15.3,2.4c0,0,4.6,2.4,9.3,9.6c0,0,1.9,5,8.2-2.4c0,0,4.3,3.6,9.2-2.2c0,0,9,0.8,9.9-4.9
			c0,0,6.3-0.3,7.3-4.3c0,0,1.5-2.6,1-4.2c0,0,4.8,1.2,6.9-2.5s-0.1-8.7-0.1-8.7s7.7-4.7,2.6-11.6c0,0-0.7-4.3,1.2-6.4
			c1.9-2.1,4.2-2.7,1-7.8c0,0,4.8-4.6,0-9.3c0,0-1.3-9.9-5.8-12.6c0,0,0.6-3-4.5-7.1c0,0-0.7-6.2-3.9-6.8c0,0-5.5-10.9-9.6-8.8
			c0,0-3.8-5.3-10.9-3.1c0,0-3.4-3-8.6-4c-5.2-1-8.3-1.8-12-3.7c-3.7-1.9-9.6-0.8-10.1,1.6c-0.6,2.4-1.4,4-3.6,5.1
			c-3.6,1.8-4.9-1.5-8.3,0.4c-3.4,1.9-5.3,2.2-7.9,4.7s-8.1,9.7-11.7,11.5c-3.6,1.8-18.4,0.6-19.4,2.1
			C377.5,308.9,378.1,310.9,378.1,310.9z"/>
	</g>
	<text transform="matrix(1 0 0 1 79.8584 584.5869)" class="st8 st9 st10">FunkN</text>
	<text transform="matrix(1 0 0 1 157.605 798.5664)"><tspan x="0" y="0" class="st8 st9 st11 st12">S</tspan><tspan x="132.9" y="0" class="st8 st9 st13 st12">ou</tspan><tspan x="391.3" y="0" class="st8 st9 st11 st14">L</tspan><tspan x="466.6" y="0" class="st8 st9 st15 st16">’97</tspan></text>
	<g class="st17">
		<g class="st18">
			<path class="st8" d="M586.3,902.6c-3.8-3.8-7.5-7.7-11.5-11.3c-5.5-5.2-11.1-10.5-17.2-14.9c-0.6-0.5-1.3-0.9-1.9-1.3
				c-0.8-0.5-1.3-0.2-1.7,0.6c-0.2,0.3-0.4,0.7-0.5,1c-3.2,8.1-6.4,16.3-9.6,24.4c-0.2,0.6-0.5,1-0.8,1.6c-0.2-0.1-0.3-0.1-0.5-0.2
				l-0.1-4.6c-0.2-10.7-0.5-21.4,0.3-32.1c0.2-2.7,0.2-2.7-2.2-3.7c-10.1-4.4-20.4-8.4-31-11.3c-0.6-0.2-1.3-0.3-2.1-0.4
				c-0.3,0.7-0.6,1.3-0.8,1.8l-10.1,24.9l-12.5,31.1c-0.3,0.7-0.4,1.6-1.4,1.8c0-0.7-0.1-1.3-0.1-2c0.2-6.2,0.2-12.4,0.3-18.6
				c0.3-14.6,0.5-29.2,0.8-43.7c0.1-2.3-0.2-2.6-2.2-2.5c-6.1,0.4-12.2,0.7-18.4,1c-2.4,0.2-5,0.2-7.6,0.3c0.1-1.6,0.1-2.9,0.2-4.1
				c1.1-1,2.4-1.9,3-3c4-6.7,6.6-13.7,4.1-21.8c0.1-0.1,0.2-0.4,0.5-0.6c2.1-2.1,3.5-4.5,3.4-7.7c-0.1-2.1,1.1-3.5,3-4.3
				c2.2-0.8,4.4-1.8,6.6-2.8c0.9-0.4,1.8-1.1,1.6-2.3c-0.1-0.5-0.5-1.3-1-1.5c-1.1-0.5-1.8,0.4-2.4,1.2c-1.4,1.9-3.2,3.2-5.4,3.9
				c-2.5,0.8-3.8,2.7-3.9,5.5c0,0.3-0.1,0.6-0.1,0.9c0,3.1-1.9,5-4.2,7c-2-3.7-4.7-5.7-8.8-3.6c-0.6-2.4,0-4.6,0.4-6.8
				c0.4-2.1,0.9-4.3,1-6.5c0.3-4.2-1.1-8.1-2-12.1c-0.2-1.2-1.2-2.2-1.9-3.2c-0.6-0.8-1.5-0.8-2.3-0.2c-0.8,0.5-0.9,1.3-0.5,2.1
				c0.5,1,1.2,2,2,2.8c1.4,1.5,2.3,3.1,2.7,5.2c0.6,3.6,0.7,7.1-0.3,10.8c-0.6,2.3-0.6,4.8-0.9,7.2c-0.1,0.5-0.1,1-0.1,1.6
				c-0.4,0.2-0.6,0.4-0.9,0.5c-2.4,0.5-4.1,2.2-5.1,4.4c-1.1,2.7-2.1,5.5-3.1,8.1c-0.4,1.3-0.6,2.6-1,4.3c-0.5-0.7-0.9-1-1-1.4
				c-2-4.2-3.8-8.4-5.9-12.6c-1-2-2.3-3.9-3.4-5.8c-0.5-0.9-1.2-1.2-2.4-0.8c-1.6,0.7-3.4,1.1-5,1.6c-4.5,1.5-9.1,2.9-13.7,4.4
				c-8.8,2.9-17.5,5.8-26.3,8.7c-0.4,0.2-0.8,0.1-1.2,0.1c-0.1-0.1-0.2-0.2-0.2-0.4c0.7-0.8,1.4-1.6,2.1-2.3
				c9.9-10.8,19.8-21.4,29.8-32.1c2-2.1,2-2.2,0.1-4.4c-2.4-2.6-4.9-5-7.4-7.4c-8.5-7.9-18-14.4-27.7-20.7c-1.7-1.1-3.1-1.2-4.8-0.2
				c-6.6,3.8-13.2,7.4-19.8,11.1c-0.8,0.4-1.4,0.8-2.1,1.2c0-0.9,0.3-1.4,0.6-2c1.4-2.1,2.9-4.3,4.2-6.5c1.7-2.8,3.4-5.6,5-8.5
				c0.9-1.5,0.7-2.1-0.9-2.7c-2.2-1-4.4-1.9-6.6-2.7c-7.6-2.3-15.4-3.3-23.3-4.1c-3.8-0.3-7.5-0.6-11.3,0.1c-2.4,0.4-4.8,1-7.2,1.6
				c-0.3,0.1-0.5,0.6-0.8,1c0.3,0.2,0.7,0.5,1.1,0.5c0.5,0,1.1-0.3,1.5-0.4c4.7-1.2,9.6-1.9,14.4-1.3c2.4,0.2,2.3,0.2,3,2.4
				c1.3,4.4,2.5,8.8,4.1,13.1c2.8,7.6,5.7,15.2,8.7,22.6c3.3,8.1,6.8,16.2,10.5,24.1c4.8,10.2,11,19.7,17.2,29.1
				c5.8,9,11.8,18,19.3,25.8c0.9,0.9,1.1,1.9,1.1,3c0,5.7-0.1,11.5-0.1,17.3c0,0.4-0.3,0.8-0.5,1.3c-0.5-0.4-0.8-0.6-1-0.9
				c-1.1-1-2.1-2.1-3.2-3c-1.2-0.9-2-0.6-2.4,0.7c-0.2,0.7-0.3,1.4-0.4,2.1c-1,4.9-2,9.7-4.1,14.3c-0.3,0.6-0.7,1.3-1.1,2
				c-1.9-2-2.6-4.8-5.1-6.1c-1.4,3.4-2.6,6.7-4.2,10c-1.5,3.2-3.4,6.3-5.6,9.4c-1.5-1.4-2.7-2.6-3.9-3.7c-1.2-1.1-1.8-1-2.8,0.4
				c-1.8,2.7-3.6,5.5-5.5,8.2c-1.9,2.7-4.3,4.9-6.8,7.3c-0.5-0.9-0.9-1.5-1.3-2.1c-1.2-1.9-1.8-1.9-3.3-0.1c-2.3,2.6-4.6,5.3-7,7.8
				c-0.4,0.4-0.9,0.6-1.6,1c-0.2-0.7-0.5-1.2-0.7-1.7c-0.8-2.3-1.4-2.3-3.1-0.8c-3.4,2.8-6.9,5.6-10.3,8.3c-0.7,0.5-1.4,0.8-2.1,1.2
				c-2.3-3-2.3-2.9-5.2-0.8c-2.5,1.7-4.9,3.4-7.5,5.1c-0.5,0.3-1.1,0.5-1.6,0.7c-0.3-0.5-0.5-0.9-0.7-1.2c-1-1.7-1.5-1.9-3.1-0.9
				c-0.6,0.3-1.3,0.8-1.9,1.2c-3,1.9-6.3,3.5-9.8,5.1c-0.2-0.9-0.2-1.5-0.3-2c-0.2-1.6-0.7-2-2.3-1.6c-1.8,0.4-3.4,1-5.1,1.5
				c-3.9,1.2-7.8,2.5-11.8,3.5c-2.4,0.6-4.8,1-7.3,0.9c-3.5,0-7.1-0.5-10.5-1.1c-2.5-0.4-4.9-1-7.4-1.5c-1-0.2-2-0.4-2.3,1
				c0.2,0.2,0.3,0.5,0.5,0.5c0.5,0.2,1,0.5,1.5,0.5c5.5,1.3,10.2,3.9,14.5,7.4c8.7,7.2,18.4,12.4,29,16.3c0.8,0.3,1.6,0.5,2.5,0.6
				c1.1,0.1,1.8-0.4,1.8-1.7c0-0.8,0.1-1.7,0.3-2.7c0.9,0.3,1.6,0.4,2.2,0.6c3,0.9,6,2,9,2.9c4.7,1.3,9.4,2.4,14.1,3.5
				c2.6,0.6,2.8,0.4,2.8-2.3c0-0.6,0.1-1.2,0.3-2c1.5,0.3,2.7,0.5,4,0.7c6.1,1.2,12.2,2.4,18.3,3.6c2,0.4,2.3,0,2.2-2
				c0-1.3-0.2-2.5-0.3-4c1.1,0.1,2.1,0,3.1,0.1c4.9,0.2,9.8,0.5,14.7,0.7c1.1,0.1,2.1,0,3.2-0.9l-1.3-5.9c2.3-0.2,4.4-0.4,6.4-0.6
				c4.8-0.5,9.7-0.9,14.6-1.5c2.4-0.3,2.6-0.8,1.6-3.1c-0.6-1.4-1.6-2.7-1.5-4.6c3.1-0.9,6.2-1.8,9.2-2.8c2.2-0.7,4.4-1.3,6.6-2.1
				c1.4-0.5,1.7-1.2,1-2.5c-0.6-1.2-1.3-2.3-2-3.5c0.7-0.4,1.1-0.7,1.6-0.9c2.3-0.7,4.6-1.5,6.8-2.2c4.3-1.5,8.5-3,12.7-4.5
				c1.9-0.7,2-1.4,0.5-2.7c-0.6-0.6-1.3-1.1-1.9-1.7c-0.4-0.3-0.6-0.7-1-1.2c0.4-0.2,0.6-0.3,0.8-0.4c2.7-1,5.4-2,8.1-2.9
				c2.9-1.1,5.9-2.3,8.8-3.3c1.1-0.5,2.3-0.7,3.4-1.2c0.5-0.2,1.1-0.7,1.2-1.2c0.1-0.5-0.4-1.2-0.9-1.5c-1.5-0.8-2.9-1.6-4.5-2.5
				c-0.8-0.5-1.5-0.9-2.2-1.3c0.4-1.4,1.2-2,2.2-2.3c6.4-1.8,12.7-3.7,19.1-5.5c0.5-0.2,1.2,0,1.8,0.2c0.8,0.5,1.7,1.1,2.6,1.5
				c10.9,6.1,22.2,10.5,34.4,12.9c16,3.1,31.8,1.7,47-4.6c12.1-5,23-12,31.9-22c1-1,2-2.1,3.2-3.1c0.9,0.7,1.5,1.2,2.1,1.8
				c3.6,3.6,7.3,7.3,10.9,10.9c0.5,0.5,0.9,1.4,1.9,1.2C587.8,903.8,586.8,903.2,586.3,902.6z M555.1,877.1c1.9,0.7,6,3.8,8.2,6.1
				c-2.4,3.7-5.7,6.7-8.9,10c-1.6-1.2-2.9-2.2-4.5-3.2C551.7,885.7,553.4,881.4,555.1,877.1z M534.4,861.1c-2.5,4.8-5,9.4-7.7,14.2
				c-2.5-1.1-4.9-2.1-7.7-3.3c2.7-4.7,5.3-9.1,8-13.8C529.5,859.2,531.9,860.1,534.4,861.1z M518.2,855.1c2.3,0.8,4.6,1.6,7.4,2.6
				c-2.9,4.8-5.4,9.2-8,13.7c-2.5-0.8-4.7-1.6-7.1-2.3c1-2.5,1.9-4.7,2.9-6.9c1-2.1,2-4.1,3-6.1
				C516.7,855.2,517.2,854.7,518.2,855.1z M508.3,852.2c2.5,0.4,4.6,1.3,7.1,1.9c-2.3,5-4.5,9.7-6.7,14.5c-2.1-0.4-4.1-0.7-6.5-1.2
				C504.3,862.3,506.2,857.4,508.3,852.2z M501.8,869.2c3.8,0.3,7.5,1.1,11.1,2.3c9.2,3.2,18,7.3,26,13c0,0,0.1,0.1,0.2,0.1
				c0.9,0.6,1.9,1.2,1.6,2.6c-0.3,1.3-1.5,1.1-2.4,1.3c-2.8,0.4-5.5,0.8-8.3,1.1c-11.4,1.3-23,1.2-34.4,1.2c-0.8,0-1.5-0.1-2.3-0.1
				C493.5,888.8,500.3,871.7,501.8,869.2z M518.4,892.2c-3.7,8.3-7.9,15.9-12.2,23.9c-4.8-7.9-9.3-15.4-13.7-23.6L518.4,892.2z
				 M468.6,845.6c1.8-0.1,3.5-0.2,5.5-0.3c-0.1,0.9-0.2,1.7-0.4,2.3c-1.2,5.4-2.4,10.7-3.6,16.1c-0.2,1.1-0.7,1.7-1.7,1.8
				c-2,0.2-4,0.4-6.2,0.6c0.1-1,0.1-1.6,0.3-2c1.2-5.4,2.4-10.9,3.7-16.3C466.7,845.7,466.7,845.7,468.6,845.6z M457.6,846.1
				c2.3-0.1,4.6-0.2,7-0.3c0,0.7,0.1,1.2-0.1,1.7c-1.2,5.6-2.6,11.2-3.8,16.8c-0.3,1.3-0.7,2-2.2,2.2c-2.8,0.2-5.4,0.8-8.6,1.2
				c0.1-0.9,0.1-1.5,0.2-2c1.5-5.8,2.9-11.4,4.4-17.2C455.3,846.2,455.4,846.2,457.6,846.1z M448.6,866.3c-0.3,1.3-0.9,1.9-2.2,2.1
				c-1,0.1-2,0.4-3.6,0.8c1.3-3,3.2-4.8,4.4-7.2c1.2-2.4,2.3-4.7,3.5-7c0.2,0,0.4,0.1,0.5,0.1c-0.1,0.8-0.2,1.7-0.4,2.4
				C450.1,860.4,449.3,863.4,448.6,866.3z M446,816.7c0.7-1.1,1.7-1.9,3-2.3c1.3-0.4,2.6-1,3.8-1.5c2.4-1.1,3.9-0.8,5.5,1.3
				c0.9,1.1,1.7,2.2,2.7,3.2c0.9,0.9,1.2,1.9,1.2,3.1c0.1,3.8-0.7,7.4-2.1,10.8c-0.7,1.7-1.6,3.2-2.4,4.8c-0.4,0.7-1,1.3-1.5,1.8
				c-1.4,1.2-2.4,1.2-3.6-0.2c-1-1-1.9-2.3-2.7-3.4c0.3-0.6,0.5-1,0.8-1.5c-0.6-0.6-1.3-1.2-2.1-2c-0.4,0.9-0.6,1.4-0.7,1.9
				c-0.2,0.1-0.3,0.2-0.5,0.2c-1.1-0.1-2.3-0.1-3.4-0.3c-1.9-0.1-2.8-1.1-2.5-2.9C442.3,825,443.5,820.7,446,816.7z M439.5,835
				c0.3-0.7,0.6-1.4,0.7-1.8c2.4,0.4,4.5,0.9,6.8,1.3c-0.1,0.5-0.1,0.9-0.2,1.2c-2.4,5.6-4.7,11.3-7.4,16.9
				c-4.8,9.9-10.5,19.3-16.5,28.5c-2,3.2-4.3,6.2-6.6,9.1c-3.9,4.9-7.9,9.9-12.1,14.6c-5.8,6.5-12,12.6-19,18
				c-4.2,3.2-8.4,6.6-12.8,9.6c-5.4,3.9-11.3,6.7-17.3,9.4c-3.7,1.6-7.2,3.4-10.9,5.2c-0.5,0.2-0.8,0.7-1.4,1.2
				c1.2,0.9,2.1,0.2,2.9-0.2c2.6-1.1,5-2.4,7.5-3.6c5.3-2.7,10.7-5.4,16.1-8.2c5.7-2.9,10.6-7.1,15.5-11.1c2.9-2.2,5.6-4.6,8.3-7.1
				c2.7-2.5,5.3-5,7.9-7.6l0-0.1c1.7-1.8,3.5-3.6,5.1-5.5c3.3-3.8,6.4-7.9,9.8-11.7c4.9-5.7,8.8-12.2,12.8-18.5
				c5-7.8,9.2-16,13.5-24.3c2-4,3.5-8.2,5.2-12.3c0.4-0.8,0.7-1.5,1.3-2.5c0.6,0.8,1.1,1.3,1.6,1.8c0.7,0.9,1.3,1.9,2.2,2.3
				c1.6,0.8,1.8,2.1,1.3,3.5c-0.9,2.6-1.9,5.2-3,7.7c-1,2.4-2.1,4.7-3.4,7c-2,3.6-4.3,7.1-6.4,10.7c-1.3,2.1-2.6,4-2.9,6.6
				c-0.1,0.6-0.9,1.3-1.5,1.8c-1.2,1.1-2.5,2.1-3.6,3.2c-0.5,0.5-0.9,1.1-1.1,1.8c-0.3,1.9-1.3,3.3-2.4,4.9c-0.9,1.2-1.9,2.2-3.2,3
				c-2.4,1.4-4.5,3.1-4.7,6.2c-0.1,0.6-0.8,1.2-1.4,1.4c-2.1,0.8-3.7,2.1-5.1,3.9c-0.2,0.1-0.2,0.2-0.3,0.3
				c-3.1,3.7-3.1,3.7-4.3,8.2c-3.8-0.1-5.9,2.4-8,5.3c-0.3,0.5-0.8,0.9-1.4,1.1c-1.9,0.7-3.3,1.9-4.2,3.8c-0.6,1.1-1.4,1.8-2.4,2.4
				c-2.4,1.3-4.9,2.7-6.2,5.4c-0.1,0.5-0.8,0.7-1.2,1c-1.3,1-2.7,1.8-4,2.7c-0.5,0.3-0.8,0.9-1.3,1c-2.5,0.7-4,2.7-5.5,4.6
				c-1.1,1.5-2.4,2.6-4.3,2.8c-0.6,0.1-1.1,0.3-1.7,0.4c-1.1,0.3-2.1,0.9-3,1.6c-0.5,0.4-0.9,0.8-1.3,1.2c-0.8,0.8-1.5,1.1-2.7,0.9
				c-1-0.1-2.1,0.1-3.1,0.5c-2.7,0.9-5.3,2.2-7.2,4.4c-0.4,0.4-1.1,0.6-1.6,0.7c-3.4,0.8-6.6,1.6-9.1,4.3c-0.4,0.4-1.3,0.6-1.9,0.5
				c-2.6-0.4-5.1-0.1-7.1,1.8c-0.8,0.7-1.7,0.7-2.8,0.4c-1.2-0.4-2.5-0.4-3.6-0.3c-1.4,0.2-2.8,0.4-4,1c-2.4,1.2-4.6,0.8-6.9,0.1
				c-2.2-0.6-4.1-0.6-5.9,0.9c-0.8,0.6-1.8,0.7-2.9,0.4c-2.1-0.4-4.4-0.7-6.5,0.4c-0.3,0.2-0.9,0.2-1.3,0c-0.8-0.5-1.6-0.8-2.4-1.1
				c-1.9-0.5-3.8-0.3-5.8,0.1c-0.2,0-0.3-0.1-0.5-0.2c1.3-0.7,2.6-1.5,3.9-2.3c1.2-0.6,2.1-0.4,3.1,0.5c2.3,2.1,4.2,2.1,6.5-0.1
				c0.7-0.6,1.2-1.4,1.9-2l0-0.1c0.2-0.2,0.5-0.4,0.7-0.6c0.5-0.4,0.9-0.6,1.4-0.7c0.3-0.1,0.5-0.2,0.8-0.2c0.7,0,1.4,0.1,2.2,0.6
				c1.6,0.8,3,0.9,4.5-0.1c0.6-0.5,1.4-0.7,2.1-0.7c2.2-0.2,4.4-0.8,6.1-2c2.7-2,5.8-2.4,9-2.3c0.4,0,0.8-0.1,1.1,0
				c2.4,0.2,4.7-0.5,6.3-2.4c2.6-3,5.8-5.2,9.5-6.7c2.4-0.9,4.5-2.4,5.7-5c0.3-0.5,1.1-0.8,1.7-1c1.5-0.7,3.1-1.2,4.5-1.7
				c1.2-0.5,2.5-0.9,3.7-1.2c1.8-0.4,3.1-1.1,4-2.9c0.2-0.4,0.9-0.8,1.4-1c3.1-0.9,5.9-2.4,8.3-4.8c1.4-1.4,2.7-2.7,3-4.7
				c0.2-1,1-1.4,1.9-1.4c0.8-0.1,1.7-0.1,2.5-0.1c3.4-0.2,6-2.1,6.8-5.5c0.4-1.4,1-2.5,2.3-3.1c1-0.6,1.7-1.6,2.5-2.5
				c0.7-0.7,1.3-1.5,2-2.2c1.8-1.7,3.7-3.4,5.4-5.1c2.3-2.5,4.5-5.3,6.6-8.1c2-2.8,3.9-5.8,5.7-8.7c0.9-1.5,2-2.9,2.9-4.4
				c1-1.5,1.9-2.9,2.8-4.5c1.9-3.4,3.7-6.9,5.2-10.5C432.7,852.1,436,843.6,439.5,835z M409,891.1c-0.6,0.8-1.1,1.4-1.6,2.1
				C407.1,891.5,407.1,891.5,409,891.1z M412.3,868.7c-1.1,1-2,2.2-2,3.8c-0.1,1.7-1,2.6-2.5,3.2c-0.2-0.4-0.3-0.8-0.3-1.1
				c0-1.5-0.3-2.8-1.4-3.9c-0.6-0.7-0.7-1.5-0.2-2.4c0.9-1.7,1.8-3.3,2.8-4.9c1.2-1.8,2.7-3.3,4.9-3.9c1.5-0.3,1.6-0.7,1.3-2.7
				c-0.3-2.7,0.6-5,2.4-6.9c1.8-1.8,3.9-3,6.4-3.6c1.1-0.2,1.8,0,2.2,1.1c0.8,2.3,1.8,4.4,2.4,6.7c0.3,1.1,0.2,2.4-0.2,3.5
				c-0.7,2.1-2,4-4,5.3c-0.9,0.6-1.9,1-2.8,0.3c0.1-1.2,0.1-2.3,0.3-3.3c0.1-0.6,0.2-0.9,0.4-1.4c0.1-0.4,0.3-0.7,0.4-1.1
				c0-0.2,0-0.3,0.1-0.4c0.1-0.1,0.1-0.2,0.1-0.2c0-0.4-0.1-0.8-0.1-1.2c-0.4,0.2-1.1,0.3-1.2,0.7c-0.5,1.1-1,2.3-1.1,3.5
				c-0.1,1.6-0.7,2.4-2.1,2.7c-0.5-0.4-1-0.9-1.5-1.3c-0.9,2-0.3,3.1,1.6,3.3c0.9,0.1,1.9,0.4,2.8,0.5c0.9,0.2,1.2,0.9,1.2,1.8
				c-0.3,4.6-3.2,9.1-8.4,10.3c-1,0.2-2.1-0.1-3.1-0.2c0.5-1.7,0.9-3,1.3-4.3c0.2-0.7,0.6-1.4,1-2.1c0.3-0.5,0.6-1,1.3-2.1
				C413.2,868.5,412.6,868.4,412.3,868.7z M390.8,836.7c2.6-0.6,2.9-0.4,3.8,1.8c1.8,4.5,3.4,9,5.5,13.2c1.2,2.5,1.4,4.9,1.1,7.5
				c-0.1,0.8-0.2,1.7-0.3,2.5C398.4,858.6,390.9,839.2,390.8,836.7z M400.4,867c-1.8,0.1-2.5-1.1-3-2.2c-0.9-2-1.8-4-2.7-6
				c-3.1-7.1-6.1-14.2-9.1-21.4c-0.1-0.2-0.2-0.5-0.2-1c2.8-0.6,2.9-0.4,3.8,1.8c3.6,8.9,7.2,17.8,10.8,26.8
				C400.2,865.6,400.3,866.2,400.4,867z M400.5,849.3c-1.6-4.1-3.5-8-4.7-12.2c1-0.2,1.6-0.3,2-0.1c0.2,0,0.3,0.1,0.4,0.2l0.2,0.2
				c0.1,0.1,0.2,0.2,0.2,0.4c0.1,0.2,0.2,0.4,0.3,0.7c0.2,0.5,0.4,0.9,0.6,1.3c0.6,1.3,1.1,2.7,1.7,4.1c0.9,2.2,1,4.3,0.3,6.9
				C401.2,850.1,400.8,849.7,400.5,849.3z M402.2,841.8c-0.6-1.4-1.2-2.7-2-4.6c1.2,0.1,2.1,0.1,3,0.2c0.4,1.6,0,3-0.5,4.3
				L402.2,841.8z M401.9,867.3c0.8-8.1,1.6-16.3,2.3-24.4c0.1-1.2,0.4-2.3,0.7-3.9c3.7,3.5,7.1,6.7,10.8,10.1
				c-2,2.4-2.5,5.3-2.3,8.5c-5.8,1.8-7.3,7.4-10,11.9c-1,0.1-1.5-0.4-1.5-1.2C401.8,868.1,401.8,867.7,401.9,867.3z M427.9,845.9
				c2.8-3.1,5.6-6.1,8.7-9c-1.6,5.8-3.8,11.1-6.3,16.5c-0.2-0.1-0.5-0.1-0.7-0.1c-0.7-2-1.4-3.9-2.1-5.9
				C427.5,847,427.6,846.3,427.9,845.9z M425.2,864.5c0.1,1.3-0.4,2.1-1.4,3.3C423.6,866.1,423.5,865,425.2,864.5z M417.6,877.4
				c-0.4,1.7-1.3,3-2.6,4.2C414,879,414.4,878.3,417.6,877.4z M435.9,825.2c0.7,1.3,1.2,2.6,1.6,3.8c0.2,0.6,0.5,1.3,0.7,1.9
				c0.1,0.2,0.1,0.4,0.1,0.5c0,0.7-0.4,1.3-0.9,1.7c-2.2,2.4-4.5,4.8-6.7,7.2c-1.3,1.4-2.6,2.7-3.9,4.2c-1.5-1.9-2-4-2.7-6
				c-0.2-0.4,0.1-0.9,0.3-1.3c3.3-4.6,6.7-9.1,10.3-14.1C435.2,823.9,435.5,824.5,435.9,825.2z M430.5,814.2c1,1.9,2,3.9,3,5.8
				c0.5,0.9,0.6,1.6-0.1,2.4c-3.3,4.4-6.6,8.7-9.8,13.1c-0.1,0.2-0.3,0.2-0.5,0.3c-0.3-0.4-0.6-0.8-0.9-1.2c-1.3-2.5-2.6-5-3.8-7.5
				c-0.5-0.8-0.9-1.6-0.2-2.4c3.4-4.4,6.7-8.7,10.4-13.5C429.5,812.5,430,813.2,430.5,814.2z M425.9,811.2
				c-0.4,1.6-6.3,9.3-9.4,12.6c-1.9-2.6-3.7-5-5.7-7.7C415.9,813.9,420.9,812.7,425.9,811.2z M409.1,816.5
				c7.1,8.1,11.7,17.5,15.4,27.5c-2.7,1.3-5.3,2.5-7.9,3.7c-8.7-7.7-16.4-16.4-24.2-25.8C398.2,820.1,403.7,818.3,409.1,816.5z
				 M378.5,822.8c0.1-4.8,1-9.4,2-14c1.5,1.1,3.6,4,5.1,6.9C383.4,818.1,381.2,820.6,378.5,822.8z M379,807.5
				c-0.1,1-0.3,1.7-0.4,2.5c-0.7,4.3-1.4,8.4-2,12.6c-0.5,3.4-1.1,3.9-4.9,4.2c1.5-6.5,2.9-13.1,4.4-19.9
				C377.2,807.2,378,807.4,379,807.5z M355.6,801.1c3.1-7.4,6-14.8,9.8-22.3c4.6,9.2,8.9,17.9,13.2,26.5
				C376.8,805.4,357.6,801.9,355.6,801.1z M387.2,814.1c-4.3-3.7-18.9-30.7-19.1-35c6.9,2.5,26.1,17.7,29.7,23.7
				C394.2,806.5,390.6,810.3,387.2,814.1z M405.9,780.7c0.2-0.1,0.5-0.2,0.7-0.2c1.9,2,3.9,4,6,6.2c-3.9,4.3-7.7,8.4-11.5,12.4
				c-0.2-0.1-0.3-0.2-0.5-0.2c0.1-2,1-3.9,1.5-5.8c0.5-2.1,1.3-4.3,1.8-6.3C404.6,784.7,405.2,782.7,405.9,780.7z M396.7,772.2
				c0.4,0.2,0.8,0.2,1,0.5c2.1,1.8,4.1,3.6,6.2,5.3c0.2,0.2,0.4,0.3,0.5,0.5c0.2,0.2,0.2,0.4,0.2,0.7c0,0.2,0,0.2-0.1,0.4
				c0,0,0.1,0,0,0.1c0,0.1,0,0.2-0.1,0.3c-1.8,6.2-3.7,12.5-5.6,18.7c-0.1,0.5-0.5,0.8-0.8,1.4c-2.3-2.4-4.6-4.6-6.8-6.8
				c-0.3-0.3-0.5-1.1-0.3-1.5c1.8-6.4,3.5-12.7,5.3-19.1C396.3,772.6,396.5,772.4,396.7,772.2z M385.7,763.6
				c3.1,2.3,5.9,4.3,8.6,6.3c0.8,0.5,0.9,1.2,0.6,2c-0.5,1.3-1,2.7-1.4,4c-1.2,4.3-2.3,8.5-3.4,12.8c-0.2,0.7-0.4,1.5-0.7,2.2
				c-0.3,0-0.6,0.1-0.8,0c-2.2-1.7-4.6-3.4-6.8-5.2c-0.6-0.5-0.9-1-0.7-1.8c0.1-0.4,0.1-0.8,0.2-1.2c1.2-5.5,2.3-11,3.6-16.6
				C385,765.6,385.3,764.9,385.7,763.6z M374.7,757.2c1.8,0.4,6.8,3.4,9.3,5.7c-1.5,6.9-3,13.9-4.5,21c-3.1-1.8-5.9-3.5-8.6-5.3
				c-0.4-0.2-0.8-1-0.7-1.5c1.3-6.4,2.7-12.8,4.2-19.2c0-0.1,0.1-0.2,0.1-0.4C374.6,757.4,374.7,757.3,374.7,757.2z M372.4,758.3
				c-1.3,6.5-2.5,12.4-3.9,18.5c-5.1-2.8-9.7-5.3-14.7-8C359.9,765.1,365.8,761.8,372.4,758.3z M346.7,746.3
				c4.3,0.9,8.6,1.8,12.8,4.3c-0.6,1.1-1.1,1.9-1.6,2.7c-2.6,4.1-5.1,8.2-7.8,12.3c-0.4,0.6-0.8,1.3-1.6,1c-0.8-0.1-1.1-0.8-1.1-1.6
				c-0.4-6-0.7-11.9-1.1-17.9C346.4,746.9,346.5,746.8,346.7,746.3z M337.6,762.5c-1.8-5.6-3.6-11.2-5.5-16.8
				c-0.1-0.4-0.1-0.8-0.1-1.7c2.8,0.3,5.3,0.5,7.7,0.8c1.6,0.2,3.1,0.7,4.7,1c0.2,1.6,0.4,3.2,0.6,4.9c0.3,4.1,0.5,8.2,0.8,12.3
				c0,0.7-0.1,1.5,0,2.5c-2.5-0.6-4.8-1.1-7.1-1.8C338.3,763.7,337.7,763,337.6,762.5z M342.9,776.2c-1.3-3.4-2.7-6.6-3.9-9.9
				c0.2-0.2,0.4-0.4,0.5-0.6c2.8,0.8,5.6,1.7,8.5,2.6C347.4,770.2,344.6,774.7,342.9,776.2z M344.2,778.3c1.1-2.2,2.3-4.4,3.9-6.2
				c0.2,0.2,0.4,0.2,0.6,0.4c-1.2,2.5-2.3,5.1-3.5,7.8C344.1,779.8,343.8,779.1,344.2,778.3z M346.1,782.7c1.7-4,3.5-7.9,5.3-11.8
				c0.4-0.9,1.1-0.6,1.9,0c-2.1,4.8-4.1,9.6-6.1,14.4C346,784.6,345.7,783.6,346.1,782.7z M349.1,790.6c-0.9-1.1-1.5-2.1-1-3.4
				c2-4.9,4.1-9.7,6.1-14.6c0.1-0.4,0.2-0.8,0.3-1.1c1.4,0.3,2.3,0.5,1.7,1.9c-2.2,5.6-4.4,11.1-6.6,16.7
				C349.6,790.2,349.4,790.4,349.1,790.6z M350.6,792.1c2.1-5.1,4.1-10.2,6.1-15.3c0.4-1.1,0.9-2.3,1.5-3.7c0.9,0.5,1.5,0.8,2.3,1.3
				c-3,7.2-6,14.2-9,21.5C350.1,794.6,350,793.5,350.6,792.1z M353.8,801c-1.2-1.2-1.7-2.2-1.1-3.5c3-7,5.9-14.1,8.8-21.1
				c0.1-0.4,0.5-0.6,0.8-1.1c0.8,0.4,1.5,0.8,2.3,1.2C360.9,784.7,357.4,792.8,353.8,801z M358.2,809.4c-0.2,0.1-0.4,0.1-0.6,0.2
				c-1-2-2-3.9-3.2-6.4l0-0.1c0.5,0.1,0.9,0.1,1.3,0.1c1.2,0.1,2.2,0.3,3.3,0.3C359.1,805.7,358.7,807.6,358.2,809.4z M359.7,810.9
				c0.4-2.1,0.7-4.3,1.1-6.8c1.1,0.1,2,0.2,3.2,0.3c-0.5,3.9-1.4,7.6-2.2,11.7C360.1,814.4,359.2,813.1,359.7,810.9z M363.3,816.7
				c0.8-3.4,1.3-6.8,2-10.2c0.1-0.5,0.3-0.9,0.5-1.6l0-0.1c0.2,0.1,0.5,0.1,0.7,0.2c0.7,0.1,1.3,0.4,2,0.5c-1,5.6-1.9,11-3,16.9
				C363.8,820.5,362.7,819.1,363.3,816.7z M367,823.1c1-4.8,1.8-9.7,2.7-14.6c0.1-0.9,0.4-1.7,0.7-2.7c1.5,0.3,2.7,0.5,4.3,0.8
				c-1.2,6.9-2.9,13.6-4.4,20.4c-0.1,0.5-0.5,0.9-0.8,1.6C367.8,826.9,366.5,825.5,367,823.1z M370.2,830c0.7-0.3,1.4-0.8,2.1-1.1
				c5.6-2,11.2-3.9,16.8-6c0.9-0.2,1.7-0.3,2.3,0.4c3.3,3.8,6.6,7.5,9.8,11.3c0.1,0.1,0,0.2,0,0.6c-0.5,0-1,0.1-1.5,0
				c-8-0.4-15.9-1-23.9-1.2C372.8,834.1,371.2,833,370.2,830z M381.3,846.9c-0.5-0.5-0.9-1.2-1.4-1.8c-1.6-2.3-3.6-5-4.7-7.1
				c-0.5-0.9-0.9-1.6-1.1-2.1l0.1,0c0.2-0.1,0.3-0.2,0.4-0.2c4.4,0.1,4.1-0.7,5.6,3.9c0.9,2.7,1.9,5.2,2.8,7.7
				c0.2,0.5,0.3,1,0.5,1.6C382.9,848.7,382.2,848,381.3,846.9z M387.4,854.7c-0.2-0.2-0.4-0.5-0.5-0.8c-2.1-5.7-4-11.3-6.1-17.1
				c-0.1-0.2,0-0.5,0-0.6c2.2-0.7,2.4-0.7,3.2,1.2c3.2,7.5,6.4,15.1,9.7,22.7c0.2,0.3,0.2,0.7,0.2,1c-0.2,0.1-0.4,0.2-0.5,0.3
				C391.4,859.2,389.4,857,387.4,854.7z M352,926.2c0.1-1.9,1-3.3,2.1-4.6c2-2.1,4.3-3.5,7.1-4.5c0.9,2,0.3,3.5-0.6,4.9
				c-0.8,1.2-1.9,2.3-2.9,3.3c-0.5,0.6-0.6,0.6-0.4,1.8c1.5-0.3,2.4-1.3,3.3-2.3c1.1-1.3,1.4-1.3,3-0.8c1.1,0.3,2.2,0.5,3.4,0.7
				c0.6,0.1,1.4,0.1,1.3-0.8c0-0.2-0.7-0.5-1.2-0.7c-0.8-0.2-1.6-0.3-2.4-0.4l0-0.5c1.3-0.6,2.7-1.4,4-2c0.4-0.2,0.8-0.3,1-0.6
				c0.2-0.2,0.4-0.6,0.3-0.8c-0.2-0.2-0.6-0.5-0.8-0.5c-1,0.3-1.8,0.8-2.7,1.2c-0.9,0.4-1.8,0.7-2.7,1.1c-1-4.2-0.8-4.9,1.2-6.3
				c0.4,0.2,0.8,0.5,1.3,0.8c0.2-0.2,0.4-0.4,0.4-0.6c0.3-2.3,1.2-3.9,3.6-4.1c1.2-0.2,1.8-1.3,2.1-2.4c0.5-2.4,2.1-3.4,4.3-3.4
				c1.5,0,2.3-0.8,2.7-2.2c0.5-1.7,1.9-2.5,3.3-3.3c1.4-0.8,2.7-1.4,4.4-0.7c0.6,0.2,1.5,0.3,2.1,0c1.5-0.5,2.8-0.4,3.7,1.1
				c1-1.7,0.2-3.1-1.3-3.2c-0.6,0-1.2,0.3-1.8,0.3c-0.9,0.1-1.8,0.1-2.9,0.1c0.9-5.9,5.4-8,9.8-10.8c0.1,1.3,0.2,2.2,0.2,3.1
				c0,0.9-0.2,1.9-0.1,2.8c0.2,1.3,0.9,1.8,2.1,1.4c1.5-0.5,3-1.2,4.4-1.8c-0.8-1.2-0.8-1.2-4.9,0c0-0.5-0.2-0.9-0.1-1.4
				c0.4-1.8,0.3-3.5-0.7-5.2c-0.2-0.4-0.2-1.1-0.2-1.6c0.4-4.9,2.7-8.6,6.5-11.6c1-0.8,1.7-0.7,2.2,0.5c0.3,0.6,0.4,1.3,0.5,2
				c0.1,0.6,0,1.3,0.1,1.9c0.2,2,0.8,2.4,2.7,2.2c0.8-0.1,1.7-0.3,2.5-0.3c0.4-0.1,0.8,0.1,1.1,0.1c1.4,3.4,1.1,6-1.4,8.4
				c-1,1-2.1,1.8-3.3,2.4c-1.4,0.7-2.1,1.6-2.4,3.3c-0.6,2.8-2.4,5.1-4.4,7c-1.4,1.4-3,2.5-3.9,4.3c-0.3,0.6-0.9,0.9-1.4,1.3
				c-1.2,0.8-2.1,0.7-3.1-0.3c-0.4-0.3-0.7-0.8-1.2-1.3c-1.2,1.4-2.7,1.8-4.4,1.3c-0.9-0.9,0.1-2.5-1.4-3.4
				c-1.2,1.4-0.5,2.8-0.1,4.2c0.3,1.3,1.4,1.1,2.5,1c1.1-0.1,2.3-0.1,3.4,0c1.2,0.2,1.5,0.7,1.3,1.9c-0.4,2.1-2.9,5.2-5.7,5
				c-3.1-0.2-6.2,0.3-9.5,0.5c0-3,2.7-4.2,4.9-6c-1.7-0.5-1.7-0.5-5.3,1.7c-0.9-0.7,0-2.4-1.4-2.9c-0.2,0.2-0.4,0.2-0.5,0.3
				c0,2.4-0.2,4.7,0,7c0.2,2.1,1.1,2.5,3.1,1.7c1.5-0.6,1.5-0.6,3-0.1c-0.3,0.8-0.4,1.7-0.9,2.3c-2.6,3.3-5.8,5.7-10,6.4
				c-0.9,0.2-1.6,0.4-1.8,1.4c-0.4,1.4-1.4,1.9-2.7,2.3c-2,0.7-4,1.3-5.8,2.2c-2.7,1.2-5.4,0.9-8.1,0
				C351.9,929.1,351.9,927.7,352,926.2z M337.1,933.8c0.5-0.7,1.1-1.4,1.7-2.1c2.8-2.7,6.1-4.8,9.6-6.4c0.3-0.1,0.6-0.2,0.9-0.2l1,0
				c0,1.4,0.2,2.7,0,3.9c-0.2,1.2-0.9,2.2-1.4,3.5c2,0.2,3.6,0.4,5.7,0.6c-2.3,4-5.6,5.3-9.1,6.3c-2.8,0.8-5.6,0.2-7-1.3
				c0.4-1.1,1.4-1,2.3-1.2c1-0.3,1.8-0.7,1.7-2.2c-1.8,0.6-3.5,1.1-5.3,1.6C336.5,935.4,336.5,934.6,337.1,933.8z M327.9,935.5
				c2-1.3,4.2-1.7,6.5-1.8c1.2,2.8,0.8,3.6-1.7,4.6c-1.6,0.7-3.2,1.5-4.7,2.4c-0.6,0.3-1.1,1-0.4,2c0.4-0.2,0.8-0.4,1.1-0.6
				c1.8-1.6,4-2.4,6.2-2.9c0.6-0.2,1.5-0.3,2,0.1c1.5,1.3,3.2,1.9,5.5,2.1c-2.2,2.9-4.2,5.2-7.8,5.2c-1.3,0-2.6,0-3.9,0.1
				c-1.8,0.2-3.6,0.1-5.2-1c-0.8-0.6-2-0.7-3.1-1c0.8-2.3,1.5-4.6,2.6-6.7C325.7,936.9,326.9,936.3,327.9,935.5z M322.6,938.8
				c0.5,1.1-0.3,2-0.6,3.1c-0.2,0.6-0.7,1-0.9,1.7c-0.8,1.8-0.2,2.8,1.7,3c0.9,0.1,1.8,0,2.6,1.1c-1.6,1.6-3.3,2.3-5.2,2.9
				c-1.7,0.4-2.1,0.2-3.1-1.3c-0.5-0.7-1.1-1.3-1.8-2.2c-1.1,1.7,0.9,2.6,0.5,3.9c-1.7,1.8-2.1,1.8-4.1,0.8c-0.7-0.4-1.4-0.7-2-1.1
				c1.4-4.5,1.4-4.5-0.2-7.3C311.7,940.3,316.8,938.4,322.6,938.8z M265.8,949.6c2.8,0.6,5.2,0,7.8-0.7c1.4-0.4,3,0,4.4,0.3
				c0.8,0.1,1.3,1.1,2.2,1.9c0.5-0.3,0.9-0.7,1.5-1c1-0.6,2-1.4,3-1.5c2.4-0.3,5-0.3,7.5-0.5c1.1-0.1,2.1-0.2,3.1-0.5
				c3.1-1,6.3-2.2,9.4-3.3c0.3-0.2,0.7-0.2,1.1-0.3c2.5-0.3,4.1,1.6,3,4c-0.6,1.5-1.7,2.8-2.7,4c-0.8,1-1.7,1.9-2.7,2.9
				c-1.9,1.8-2.7,1.8-4.7,0.1c-0.5-0.5-1.2-1-1.8-1.1c-1.8-0.2-2.3-1.3-2.6-2.9c-0.1-0.4-0.3-0.8-0.6-1.3c-1.7,1.6-0.2,3-0.2,4.4
				c-1.8,2.1-2.4,2.2-4.7,0.9c-1.2-0.8-2.4-1-3.8-0.7c-1.2,0.3-2.5,0.7-3.8,0.9c-0.8,0.2-1.7,0-2.8,0c0.2-0.9,0.4-1.3,0.5-1.9
				c0-0.3-0.2-0.7-0.4-1.4l-1.3,1.4c-1.2,1.2-3.1,1.6-4.7,0.7c-1.3-0.8-2.7-0.7-4.2-1c-4-0.3-7.8-1.8-12-3.2
				C260,949.8,263,949,265.8,949.6z M440.2,899.7c-1.6,3.2-4.2,5.2-7.2,6.8c-0.6,0.3-1.5,0.2-2.2,0.3c-0.9,0.2-2.1,0-2.3,1.6
				c0.7,0.1,1.2,0.2,1.8,0.4c0,0.2,0.1,0.5,0,0.6c-0.5,2.1-1.6,3.7-3.3,5c-0.6,0.5-1.1,1.1-1.7,1.6c-0.9,0.6-1.8,1.4-2.8,1.9
				c-1.2,0.6-2.2,1.1-2.8,2.6c-0.7,1.9-2.3,3.1-4,4.1c-1.2,0.6-2.1,1.4-2.6,2.9c-0.4,1.3-1.4,2.1-2.7,2.2c-1.8,0.3-3,1.3-4.1,2.7
				c-2,2.5-4.5,4.2-7.8,4.7c-0.6,0.1-1.1,0.4-1.7,0.7c-0.3,0.1-0.5,0.4-0.8,0.5c-2.1,0.8-3.2,2.6-4.6,4.2c-2.4,2.9-5.7,3.8-9.5,2.7
				c-1.2-0.3-2.4-1.1-3.8-0.1c0.9,1.8,3.1,0.8,4.2,2.5c-0.4,0.6-0.7,1.4-1.3,2c-1.7,1.7-3.5,3-5.9,3.4c-1.1,0.3-2.1,1-3.1,1.7
				c-0.2,0-0.4,0.1-0.5,0c-2.7-2-5.9-2-9.1-2.3c-0.2,0-0.3-0.1-0.5,0c-0.3,0.2-0.7,0.4-1.1,0.6c0.3,0.3,0.5,0.8,0.9,0.9
				c1.4,0.2,2.8,0.4,4.1,0.4c1.2,0.1,2.4,0.4,3.5,1.4c-2.2,1.8-4.6,3.3-7.2,3.2c-3.5-0.1-6.4,1.3-9.4,2.6c-1,0.5-2,1-3,1.4
				c-0.8,0.2-1.7,0.6-2.4,0.5c-2.5-0.4-4.5,0.5-6.6,1.5c-2,1-4.2,1.6-6.3,2.1c-1,0.2-2.1-0.3-3.1-0.3c-0.9-0.1-1.8-0.2-2.7,0
				c-3.1,0.8-6,1.3-9-0.3c-0.7-0.3-1.7-0.1-2.4,0.1c-1.6,0.3-3.1,0.8-4.7,1.2c-2.2,0.7-3.8-0.1-5.2-1.9c-0.3-0.5-0.7-0.9-1.2-1.6
				c-0.9,2.4-2.7,2-4.4,2c-2.6,0-5.2-0.2-7.7-1.3c-1.2-0.6-2.4-1.3-3.6-2c-3.6,2.6-7.7,2.3-10.9-0.9c-1.1-1.1-2.2-1.7-3.8-1.4
				c-3.1,0.4-5.6-0.5-7.8-2.6c-1-0.9-1.9-1.4-3.3-1.1c-0.9,0.2-2.1-0.3-3-0.8c-2.3-1.1-4.5-2.5-6.7-3.8c-0.3-0.2-0.5-0.5-0.7-1
				c0.5,0.1,1.1,0.1,1.6,0.3c2.9,0.8,5.8,1.8,8.8,2.5c1.5,0.4,3.1,0.4,4.5,0.6c0.8,0.1,1.5,0.3,2.2,0.6c1.4,0.7,2.7,1.1,4.2,0.6
				c0.5-0.1,1.1,0,1.5,0.2c1.2,0.8,2.5,1,3.8,0.8c2.9-0.4,5.4,0.7,7.8,2.2c1.2,0.7,2.1,0.9,3.4,0.6c1.7-0.5,3.4-0.6,5,0.2
				c1.5,0.6,2.6,1.4,2.3,3.3c-0.1,0.4,0.2,0.9,0.3,1.3c1.2-0.2,1.1-1,1.2-1.7c0.3-2.3,0.7-2.8,2.9-2.7c1.5,0,3.1,0.3,4.4,0.6
				c1.2,1.6,0.3,3.9,2.7,4.9c0-0.6,0.1-1,0.1-1.4c-0.1-0.5-0.3-0.9-0.4-1.4c-0.6-2.9,0.7-4.4,3.6-4c1.1,0.1,2.1,0.5,3.6,0.9
				c-1.1,1.2-2,2-2.7,2.9c-0.2,0.3-0.4,0.9-0.3,1.2c0.4,0.7,0.9,0.3,1.3-0.1c0.6-0.6,1.1-1.1,1.7-1.6c0.6-0.6,1.3-1,2-1.4
				c0.9,1.1,1.8,1.9,2.4,2.8c0.4,0.6,0.4,1.5,0.6,2.5c1.3-0.4,2.4-1.8,4.1-1.2c0.1-0.1,0.2-0.2,0.2-0.4c-0.3-0.4-0.5-0.9-0.9-1.1
				c-0.6-0.3-1.4-0.5-2.2-0.8c-1.2-0.5-2.2-1.3-2.3-3c2.1-1.4,4.4-1.6,6.8-1.7c1-0.1,1.9,0.4,2.2,1.6c0.1,0.5,0.2,0.9,0.5,1.4
				c0.4-0.2,0.8-0.3,0.8-0.4c0-2,1.5-2.5,2.7-3.4c1.2-0.9,2.5-1.1,3.9-1.1c0.3,0.1,0.7,0,0.9,0.1c1.6,0.7,2.8,0,4-1.2
				c1.4-1.4,3-2.4,4.9-3c0.7-0.2,1.3-0.3,2.4-0.5c-0.3,0.8-0.4,1.3-0.7,1.7c-0.6,1-1.4,2-1.9,3c-0.6,1-0.3,1.6,0.8,1.9
				c1.1,0.2,2.1,0.6,3.2,0.9c0.8-1.9-1.3-1.8-1.9-3c0.4-0.6,0.8-1.4,1.3-2.4c0.7,0.4,1.3,0.6,2.1,1c0.1-0.6,0.2-1.1,0.1-1.5
				c-0.6-1.7,0-3.1,1.3-4.2c1.8-1.6,4-2.5,6.3-3.2c0.6-0.2,1.3,0,2.1,0c-0.4,2-0.8,3.6-1.2,5.3c1.5,0.4,1.5-0.6,1.8-1.2
				c0.7-1.5,1.2-3.1,2.1-4.4c2.2-3.2,4.1-4.1,8.1-4.2c0.7,1.6,1.3,3.1,0,4.8c-0.4,0.5-0.6,1.1,0.4,1.6c1.4-1.2,2.4-2.6,1.8-4.6
				c-0.6-2.2-0.3-4,1.3-5.6c1.2-1.4,2.3-2.7,4.1-3.3c0.8-0.2,1.5-1,2.2-1.6c1-0.7,1.7-1.8,3.3-1.9c0.7,2.4,1.3,4.7-0.6,6.9
				c-0.4,0.6-0.7,1.1,0.3,1.6c1.4-1.4,3-1.9,4.7-0.4c0.6-1.5,0.6-1.5-1.9-2.9c-0.2-1.3-0.4-2.6-0.5-3.9c-0.3-2.1,0.3-4.1,1.9-5.6
				c1.1-1,2.4-1.8,3.6-2.4c1.4-0.7,2.4-1.7,3-3c0.7-1.4,1.7-2.5,3.4-3c1.3,4.6-1,8.4-2.5,12.5c0.3,0.2,0.6,0.3,0.8,0.3
				c2-0.6,4-1.2,6-1.8c0.3-0.1,0.5-0.5,0.7-0.8c-0.3-0.2-0.7-0.6-1-0.6c-1.1,0.1-2.2,0.3-3.6,0.6c0.2-0.9,0.2-1.5,0.4-2.1
				c1-2.3,1.3-4.7,1-7.2c-0.2-1.3,0.2-2.4,1-3.5c0.8-1,1.7-1.8,2.6-2.7c1.4-1.1,2-1.1,4.4-0.5c0.6,1.3,0.2,2.7,0,4.1
				c-0.2,1.3-0.5,2.5-0.4,3.7c0.1,1.6,1.4,2.3,2.4,1.4c1.6-1.4,3.3-1.9,5.3-1.7c0.2,0,0.4-0.2,0.6-0.5c-0.7-1.5-2-1.2-3.1-1
				c-1.2,0.3-2.3,0.8-3.6,1.2c-0.5-0.7-0.1-1.6,0.1-2.3c0.7-2.2,0.7-4.3,0-6.5c-0.5-1.7-0.2-3.4,0.9-4.7c1.3-1.7,2.6-3.3,4.2-4.8
				c0.9-0.9,2.2-1.4,3.3-1.9c0.9-0.4,1.6,0.1,1.8,1c0.2,1.1,0.1,2.2,0,3.3c0,1.2-0.4,2.3-0.3,3.5c0.3,3.1,1.5,3.7,4.4,2.1
				c-0.2-1.7-1.6-0.5-2.4-1.1c-0.7-1-0.6-2.2-0.3-3.3c0.5-2.4,0.6-4.5-0.7-6.6c-0.9-1.6-0.3-3.8,1.1-5c0.8-0.7,1.7-1.2,2.7-1.8
				c1.4-0.9,2.8-1.6,3.4-3.4c0.1-0.4,0.5-0.7,0.8-0.9c1.1-0.7,1.4-1.8,1.6-3c0.3-2.4,1.8-4,3.7-5.1c0.6-0.4,1.7-0.5,2.1-0.2
				c0.5,0.4,0.6,1.4,0.6,2.1c0,2-0.1,4-0.2,6.1c0,0.2,0.2,0.5,0.5,0.9c1.4-0.9,1.3-2.1,1.3-3.4c0.1-1.2,0.1-2.4,0-3.7
				c-0.1-1-0.3-2-0.7-2.9c-1.1-2-0.6-3.7,0.2-5.4c0.3-0.6,1-1.1,1.6-1.3c5.4-1.4,10.9-2.4,16.5-2.8c0.1,0,0.2,0.1,0.3,0.2
				c0.4,1.1-0.1,2.3-0.5,3.3c-0.3,0.9-0.8,1.7-1.4,2.5c-1.1,1.7-1.9,3.8-3.3,4.7c-1.6,0.9-3.4,1.8-5.1,2.7c-1,0.5-2.2,0.7-3.3,1.1
				c-0.8,0.2-1.4,0.6-2.4,0.9c1.1,1.1,1.1,1.2,4.9-0.1c1.6-0.6,3.1-1.5,4.9-2.3c0.1,1.3-0.7,2.1-1.5,2.5c-3.7,2.2-4.5,6.2-6.3,9.6
				c-0.4,0.6-0.8,1.4-1.3,1.9C442.2,896.3,441,897.9,440.2,899.7z M443.3,897.7c1.1-1,2.2-2,3.6-3.2c1.4,2.7,2.7,5.3,4.2,8.1
				C448.8,902.1,445.4,899.8,443.3,897.7z M453.2,903.3c-1.6-3.2-3.3-6.4-5-9.5c-0.9-2-0.9-2,0.6-3.9c1,1,9,15.3,9.8,17.8
				C456.2,906.6,454.3,905.6,453.2,903.3z M461.1,907.9c-3.4-6.4-7.1-12.6-10.6-19c-1.1-2-0.9-2.4,1.3-3c4.8,8.3,9.5,16.6,14.6,25.4
				C463.9,910.6,462.2,910,461.1,907.9z M480.8,916.9c-2.2-0.8-3.9-1.4-6.3-2.1c2.3-2.1,4.1-3.8,6.4-5.9
				C481.1,911.9,481.1,914.2,480.8,916.9z M480.3,907.3c-2.2,1.9-4.4,4-6.5,6c-0.9,0.9-1.7,0.9-2.8-0.3c0.8-0.7,1.5-1.4,2.3-2.2
				c2.5-2.2,4.9-4.4,7.4-6.6C481.3,905.5,481.3,906.4,480.3,907.3z M480.4,901.9c-3.6,3.3-7.1,6.5-10.6,9.8
				c-0.1,0.1-0.3,0.2-0.6,0.2c-1-0.8-1.5-1.6-0.3-2.5c3.8-3.6,7.6-7.1,11.4-10.6c0.2-0.2,0.4-0.2,0.8-0.3
				C481.4,899.8,481.4,901,480.4,901.9z M481.3,895c-0.1,0.5-0.3,0.9-0.6,1.3c-4.3,4-8.6,8-13,12c-0.1,0.1-0.3,0.1-0.8,0.3
				c-5.1-7.8-9.8-15.7-13.9-24.5l1.8,0c1.8,0.5,3.8,1,5.7,1.6c1.8,0.5,3.7,1,5.6,1.6c4.6,1.1,9.1,2.1,13.7,3.1
				c0.4,0.2,0.8,0.2,1.5,0.4C481.3,892.2,481.4,893.7,481.3,895z M481.4,888.5c-3.7,0.4-21.1-3.8-26.6-6.5c0.8-1.7,1.4-3.6,2.5-5.1
				c2-2.6,3.5-5.3,3.6-8.9c6.9-1,13.7-1.6,20.9-1.3C481.8,874.1,481.5,881.3,481.4,888.5z M471.6,865.1c0.2-1.3,0.3-2.2,0.5-3.1
				c1.1-5.1,2.3-10.1,3.4-15.2c0.3-1.3,1-1.8,2.2-1.8c1.5,0.1,2.9,0,4.5-0.1c0,3.4-0.2,6.6-0.2,9.9c0,3.3-0.2,6.6-0.2,10
				C478.4,864.9,475.2,865,471.6,865.1z M483.2,917.5c-0.2,0-0.3-0.1-0.4-0.2c-0.2-0.1-0.2-0.2-0.1-0.5c0.1-0.3,0.2-0.8,0.4-1.3
				c0.5,0.8,0.9,1.4,1.5,2.2C483.9,917.5,483.5,917.5,483.2,917.5z M488.8,918.9C488.7,918.9,488.7,918.9,488.8,918.9
				c-0.3-0.1-0.5-0.1-0.6-0.1c-0.2,0-0.3,0-0.5-0.1c-0.3-0.2-0.5-0.3-0.8-0.5c-0.2-0.2-0.3-0.4-0.5-0.6c-0.5-1-1.2-2-1.8-3
				c-0.9-1.7-0.9-1.9,0.6-3.9c1.6,2.7,3,5.3,4.5,8.1C489.4,918.9,489.1,918.9,488.8,918.9z M491.4,918.3c-1.6-2.9-3.3-5.9-4.8-8.7
				c-0.9-1.6-0.8-1.7,0.6-3.8c3,4.4,5.5,9,8,13.8C493.4,920.1,492.2,919.8,491.4,918.3z M496,918c-2.4-4.3-4.8-8.6-7.3-12.8
				c-1-1.8-0.9-3.1,0.6-4.9c4.2,6.9,8.2,13.3,12.2,20C498,920.9,497.5,920.6,496,918z M503.9,920.5c-0.5-0.8-1.1-1.4-1.6-2.1
				c-3.8-6.3-7.6-12.7-11.5-18.9c-1.2-1.9-0.2-3.2,0.6-4.9c0.4,0.3,0.8,0.5,0.9,0.9c4,6.9,8,13.9,12,20.8
				C505.5,918.3,505.5,918.4,503.9,920.5z M507.2,920.8c-0.4-0.1-0.8-0.1-1.3-0.2c0.4-0.8,0.7-1.5,1.1-2.2c0.4-0.7,0.7-1.5,1.1-2.4
				c1.2,1.6,2.3,2.7,3.3,4.1C510.1,920.8,508.8,920.9,507.2,920.8z M513.7,920.4c-1.2-1.6-2.3-3-3.4-4.4c-0.3-0.4-0.5-0.7-0.7-1
				c-0.2-0.2-0.3-0.5-0.3-0.8c0-0.6,0.4-1.1,1.4-2.3l0.1-0.1c0.5,0.7,1.1,1.3,1.6,1.9c1.6,2,3.3,4,5.2,6.3
				C515.9,920.2,514.7,920.3,513.7,920.4z M518.1,918.1c-1.8-2.1-3.6-4.2-5.4-6.4c-1.6-1.9-1.5-1.9,0.1-4c1.5,0.9,8.9,9.4,9.7,11.2
				C520,920.1,519.8,920.1,518.1,918.1z M523.2,916.6c-2.6-3-5.3-6.1-8-9.2c-0.4-0.5-0.7-0.9-0.9-1.2c-0.4-0.6-0.4-1.1,0.1-1.9
				c0.2-0.4,0.6-0.9,1.1-1.6l0.1,0.1c4.6,4.7,8.8,9.4,13.3,14.4C525.7,919,525.2,918.9,523.2,916.6z M531.8,916.4
				c-0.6,0.1-1.4-0.1-1.8-0.5c-4.6-4.9-9.2-9.9-13.9-15c0.5-1.2,1-2.1,1.5-3.2c1.9,1.2,15.8,15.8,17,17.9
				C533.5,916,532.7,916.4,531.8,916.4z M538.5,914c-1.8,0.9-1.8,0.9-3.1-0.6c-4.3-4.4-8.6-9-12.9-13.5c-0.8-0.8-1.5-1.6-2.4-2.5
				c-1.7-1.9-1.7-1.9,0.1-4.2c6.5,6.6,13,13.1,19.7,19.9C539.2,913.5,538.9,913.8,538.5,914z M541,911.4c-2.3-1.3-3.5-3.3-5.1-4.7
				c-1.7-1.5-3.2-3.1-4.8-4.6c-1.5-1.6-3.1-3-4.6-4.7c-1.5-1.6-2.9-3.3-4.7-5.2c4.9-0.7,9.6-1.2,14.3-1.9c1.6-0.3,3.1-0.4,4.7-0.7
				l0,0.1C541.1,896.9,541,903.9,541,911.4z M541.1,868.7c-0.2,4-0.3,8-0.4,12c0,0.8-0.1,1.6-0.1,2.8c-4.2-2.5-8.2-4.9-12.4-7.5
				c2.6-4.8,5.1-9.4,7.6-13.9l0.8,0C541.3,863.5,541.3,863.6,541.1,868.7z M543.1,911.8c-0.2-0.2-0.5-0.2-0.7-0.4
				c0.7-5.2,3.1-9.9,4.7-14.7c1.9,0.6,2.2,0.8,1.6,2.1c-1.6,4-3.1,7.9-4.7,11.9C543.9,911.1,543.4,911.4,543.1,911.8z M551.8,901.8
				c-0.7,1.8-1.1,3.8-1.7,5.6c-0.6,1.6-2.1,1.8-3.5,2.5c0.1-1.6,2.7-8.4,4-10.7C552.1,899.6,552.3,900.5,551.8,901.8z M552.2,906.8
				c0.1-2.1,0.7-3.5,1.6-5.2c0.9,0.9,1.5,1.5,2.4,2.3C554.8,904.9,553.7,905.7,552.2,906.8z M557.7,902.9c-3.2-2.8-6.3-5.5-9.5-8.3
				c0.2-0.6,0.4-1.1,0.5-1.7c0.1-0.4,0.1-0.8,0.2-1c2.6,0.9,8.6,5.6,11.3,8.7C559.4,901.3,558.7,902,557.7,902.9z M561.7,899.5
				c-2-1.8-3.9-3.3-5.9-5c2.7-3.6,6.1-6.5,8.8-10.3c2.2,1.9,4.2,3.7,6.4,5.7C568,893.2,565.2,896.5,561.7,899.5z"/>
			<path class="st8" d="M369.1,881.3c-0.3-0.2-0.7-0.5-1.1-0.8c-5.5-3.3-11.2-6.3-17.2-8.4c-7.3-2.6-14.8-4-22.4-5.1
				c-4.8-0.7-4.8-0.8-6,4.2c-1.8,7.6-1.2,15.2,0.2,22.7c0.2,0.9,0.2,1.8,0.4,2.7c-0.7-0.1-1.1-0.4-1.2-0.7
				c-3.7-5.9-7.3-11.9-9.7-18.5c-1.2-3.4-2.1-7-3.1-10.7c-0.4-1.6-1.3-2.6-2.9-2.9c-0.6-0.1-1.2-0.4-1.8-0.5
				c-5.8-1.3-11.7-1.1-17.5-0.5c-4.7,0.5-9.6,1.3-14.3,2.1c-3.2,0.4-3.5,1.2-1.4,3.9c4.7,5.9,8.5,12.4,11,19.5
				c1.8,5.2,3.3,10.5,4.7,15.8c1,3.8,1.6,7.5,2.3,11.3c-0.2,0.1-0.3,0.2-0.5,0.2c-0.4-0.4-0.8-0.7-1.1-1.1
				c-6.2-8.6-13-16.6-20.2-24.2c-5-5.4-10.1-10.6-15.6-15.3c-4.2-3.7-3.1-3-7.8-1.7c-0.9,0.2-1.8,0.6-2.6,0.9
				c-5.7,2.4-10.8,5.7-15.7,9.4c-5.8,4.6-11.7,9.3-16.3,15.3c-1.3,1.7-1.4,2.1,0.1,3.6c5,4.9,10.4,9.4,16,13.4
				c1.4,1,1.8,0.9,3.1-0.2c2-1.7,3.9-3.4,6-4.8c6.7-4.3,13.4-8.6,20.2-12.7c3-1.9,6.2-3.5,9.3-5.2c2.1-1.1,2.4-1,4,0.8
				c3,3.5,6.1,7.1,9.2,10.6c0.5,0.6,0.9,1.2,1.6,2.1c-1.1,0.5-2.1,0.9-3,1.2c-1.4,0.5-3,0.8-4.4,1.3c-8.2,2.9-15.8,7-23.5,11
				c-1.3,0.7-2.6,1.6-3.9,2.6c-0.6,0.5-1.8,1-1.1,2c0.8,1.2,1.5,0,2.1-0.4c1.8-1,3.3-2.2,5.1-3.1c3.3-1.8,6.6-3.4,9.9-5.1
				c6.5-3.3,13.1-5.8,20.3-7.7c2.4,2.8,4.6,5.7,6.7,8.9c-0.5,0.3-0.8,0.6-1.1,0.6c-4.7,1.6-9.4,3-14,4.6c-4.7,1.7-9.2,3.5-13.8,5.3
				c-0.4,0.2-0.8,0.4-1.1,0.7c-0.2,0.2-0.3,0.7-0.1,0.9c0.2,0.2,0.5,0.5,0.8,0.5c0.5,0,0.8-0.3,1.3-0.5c2.4-1,4.7-2,7-2.9
				c4.1-1.6,8.3-2.9,12.4-4.3c2.8-1,5.6-1.8,8.4-2.7c1.2-0.4,2,0,2.6,1.1c1,1.6,1.4,3.3,1.4,5.1c-0.3,0.2-0.6,0.3-0.8,0.5
				c-0.3,0.3-0.5,0.7-0.8,1c0.4,0.2,0.8,0.6,1.2,0.6c0.8,0,1.8-0.3,2.5-0.5c7.1-2.3,14.3-4.4,21.3-6.9c9.8-3.5,19.1-8,28.1-13.1
				c9.4-5.2,18-11.4,24.9-19.9c0.8-1,1.6-2,2.2-3.1C370.4,882.7,370.3,882.2,369.1,881.3z M227.5,914.1
				c-2.6-0.6-14.2-10.1-16.8-13.7c4.1-5.9,9.6-10.3,15.5-14.7c0.6,9.3,1.2,18.4,1.7,27.3C227.9,913.4,227.6,913.8,227.5,914.1z
				 M255.3,895.4L255.3,895.4c-4,2.7-7.8,4.7-11.5,7c-3.7,2.4-7.4,4.8-11.1,7.2c-1.1-2.8-2-17.7-1.2-21.1c1.9,0.5,3.9,1.1,5.8,1.6
				c3.9,1.1,7.8,2.2,11.9,3.4C251.2,894.2,253.2,894.7,255.3,895.4L255.3,895.4z M257.3,892c-8.5-2.6-17.1-4.7-25.6-7
				c-0.9-0.2-1.8-0.6-3.1-1c0.7-0.6,1-1,1.4-1.3c1.1-0.9,2.3-1.7,3.5-2.4c2.4-1.5,4.9-2.8,7.5-4c1.3-0.6,2.6-1.1,3.9-1.6
				c2-0.8,3.7-0.7,5.3,0.9c4.7,4.6,9.4,9.1,14.2,13.7c0.2,0.2,0.4,0.5,0.6,1C262.5,891.7,260.4,893.1,257.3,892z M329.6,869.2
				c11.7,1.3,22.9,4.5,33.1,11c-0.6,0.2-1.2,0.5-1.8,0.7c-3.3,0.8-6.7,1.7-10,2.6c-2.2,0.6-4.4,1.3-6.6,2.1c-1.3,0.5-2.1,0.1-3-1
				c-2.8-3.7-5.7-7.4-8.6-11c-1-1.3-2.2-2.6-3.3-3.8C329.5,869.5,329.5,869.4,329.6,869.2z M324.7,871c3.6,3.3,6.6,6.9,9.7,10.7
				c1,1.2,2.1,2.6,3.1,3.9l-0.1,0c-5-0.5-9.4-0.9-13.9-1.3C322.7,880.7,323.2,874.4,324.7,871z M306.7,868.6
				c0.2,0.1,0.4,0.1,0.5,0.1c1.7,4.9,3.4,9.7,5.1,14.8c-4,0.4-7.8,0.9-12,1.4C301.8,879.1,304.8,874.1,306.7,868.6z M304.5,865.6
				c-2.2,5.9-4.5,11.6-6.9,17.6l0,0.1l-5.6-4.4c-5.6-4.3-11.1-8.4-17.3-11.9C278.5,864.3,299.2,863.3,304.5,865.6z M276,871.4
				c0.8-0.1,1.4,0.6,2,1.1c2.9,2.3,5.8,4.6,8.7,7c2.2,1.8,4.2,3.4,6.3,5.2c0.5,0.3,0.9,0.8,1.8,1.5c-3.6,1.2-6.7,2.1-9.7,3.1
				C282.1,883.2,279.1,877.3,276,871.4z M288.7,902.9c-1.1-3.8-2.1-7.6-3.3-11.4c0.5-0.3,0.8-0.6,1.1-0.7c8-3,16.3-4.7,24.8-5.2
				c1.6-0.1,2.7,0.3,3.5,1.9c1.3,2.6,2.7,4.9,4.1,7.3c0.2,0.5,0.4,0.9,0.8,1.6C309.2,898.3,298.9,899.9,288.7,902.9z M289.1,905
				c0.9-0.3,1.7-0.7,2.4-0.9c7.6-2,15.1-3.6,22.8-4.7c1.9-0.3,3.8-0.6,5.7-0.8c0.5,0,1.3,0.1,1.6,0.5c1.5,1.9,2.8,3.7,4.4,5.8
				c-0.5,0.2-0.8,0.5-1.1,0.6c-5.9,1.7-11.7,3.4-17.5,5.3c-3.7,1.2-7.4,2.6-11.1,3.9c-1.5,0.6-3.1,1-5,1.6
				C290.5,912.2,289.8,908.7,289.1,905z M293.3,925.3c-0.6-2.2-1-4-1.4-5.9c-0.2-0.9,0.3-1.3,1.1-1.5c6-2.1,11.8-4.3,17.9-6.2
				c4.7-1.6,9.5-2.8,14.4-4.2c0.8-0.2,1.5-0.3,2.2-0.5c1.2,1.4,2.2,2.6,3.3,4.2C318.6,917.2,306.2,921.3,293.3,925.3z M354.4,897.2
				c-5.3,4-10.9,7.4-16.7,10.5c-1.2,0.6-2.4,1.2-3.7,1.9c-0.8,0.4-1.4,0.5-2.1-0.3c-2.5-3-4.8-6.1-6-10c-0.1-0.2,0-0.6,0-1.1
				c2.8,0.2,5.4,0.6,7.9,1.5c0.8,0.3,2,1.2,2.5,0c0.5-1.4-1.1-1.6-1.9-1.7c-2.5-0.7-5.1-1.3-7.6-1.6c-1.4-0.2-2.1-0.7-2.3-2.1
				c-0.4-2.4-1.1-4.9-0.8-7.4c7.8-1.8,26.2,3.2,32.4,9C355.5,896.2,355,896.8,354.4,897.2z M358.1,894.3c-3.3-2-6.6-3.8-10-5.9
				c0.7-0.4,1.1-0.7,1.7-0.9c5.3-1.7,10.5-3.4,15.8-5.1c1.1-0.3,1.1-0.3,2.7,0.7C365.2,887.3,361.8,890.9,358.1,894.3z"/>
			<path class="st8" d="M444.4,999.8c-0.1-2.4-0.6-2.8-2.8-2.8c-6,0.2-11.7-1.4-17.2-3.8c-9.8-4.3-18.4-10.7-26.5-17.7
				c-0.2-0.2-0.4-0.5-0.8-0.9c0.6,0.1,0.9,0,1.1,0.1c8.2,2.6,16.6,3.9,25.1,4.4c5.6,0.3,11.1-0.2,16.5-0.8c2.8-0.4,2.9-0.6,3.2-3.4
				c0.7-6.8,0.1-13.5-1.7-20.1c-1.7-6.1-4.3-11.8-8.2-16.8c-1.6-2-2.3-2.1-4.1-0.3c-6.5,6.6-13.5,12.6-20.9,18.1
				c-14.8,11.1-31,19.6-48.6,24.9c-1.5,0.5-3,1-4.3,1.6c-0.4,0.2-0.6,0.7-0.9,1.1c0.5,0.2,0.9,0.5,1.4,0.5c0.4,0,0.9-0.2,1.3-0.3
				c1.7-0.6,3.4-1.1,5-1.7c8.7-3,17.4-5.9,25.4-10.5c0.8-0.4,1.4-0.5,2.1,0c2.7,2.1,5.3,4.2,8.3,6.5c-0.9,0.7-1.5,1.3-2.2,1.7
				c-5.2,2.9-10.4,6-15.5,8.8c-6.2,3.3-12.5,6.5-19.2,8.7c-1.3,0.4-2.6,0.9-3.8,1.5c-0.5,0.2-0.6,1-0.9,1.4c0.5,0.1,1.2,0.5,1.6,0.3
				c2.8-1,5.7-1.9,8.5-3.1c10.7-4.6,21-10.1,30.9-16.3c0.7-0.4,1.4-0.9,2.2-1.4c0.8,0.6,1.5,1.2,2.2,1.7c3.2,2.3,6.3,4.6,9.3,6.9
				c1.8,1.3,1.9,1.3,1.4,3.5c-1.8,8-3.7,15.9-5.5,23.9c-0.1,0.7-0.4,1.3-0.7,2.1c-1.6-0.3-3-0.6-4.5-0.9
				c-13.1-2.9-26.4-3.8-39.8-3.6c-1.1,0-2.1,0.3-3.1,0.6c-0.3,0.1-0.6,0.6-0.5,0.9c0,0.3,0.4,0.6,0.7,0.8c0.4,0.1,0.8,0.1,1.1,0
				c3.3-0.4,6.6-0.1,9.8,0.5c9.8,1.6,19,5.2,27.9,9.5c0.5,0.2,1,0.3,1.5,0.4c-0.4,1.1-0.5,1.7-0.7,2.1c-1.5,2.9-2.8,5.9-4.4,8.6
				c-4.6,7.9-9.6,15.6-15.3,22.8c-0.5,0.6-1.2,1.1-0.7,2.1c1.2,0.3,1.6-0.7,2.1-1.4c7.4-9.6,14-19.7,19.3-30.6
				c0.4-0.7,0.8-1.4,1.4-2.4c4.9,2.6,9.3,5.5,13.4,9c-0.7,1.7-1.4,3.2-2.2,4.6c-4.6,7.1-9.1,14.3-13.9,21.3c-3.1,4.6-6.5,9-9.7,13.5
				c-1.4,1.9-1.4,2.3,0.5,3.6c5,3.5,10.1,6.9,15.1,10.4c1,0.6,2.2,1.1,3.4,1.8c1.1-1.4,2.1-2.5,3-3.8c1.6-2.3,3.1-4.8,4.7-7.1
				c5.8-8.8,11-18.1,15.7-27.6c0.7-1.3,0.5-2.3-0.4-3.4c-5.7-7-12.2-13-19.5-18.3c-8.6-6.2-18.2-10.4-28-14
				c-0.8-0.2-1.5-0.5-2.2-0.8c0.1-0.2,0.1-0.4,0.1-0.6c0.9,0.1,1.8,0.1,2.7,0.1c8.1,0.8,16.3,2.2,24.2,4.2
				c9.7,2.5,19.1,5.4,27.7,10.8c1.8,1.2,2.2,1,3.2-0.9c0.3-0.6,0.6-1.1,0.7-1.7c1.4-4.6,3-9.2,4.1-13.8
				C444.7,1009.5,444.7,1004.6,444.4,999.8z M437.5,976.5c-3.5,0.2-7,0.5-10.6,0.6c-2,0.1-2.2-0.1-2.6-2.1c-0.5-2.5-1-5.1-1.5-7.8
				c4.1,1,14,6.7,15.7,9C438.1,976.3,437.8,976.5,437.5,976.5z M434.4,943.1c5.7,9.5,7.6,19.4,7,30.3c-5.6-2.8-10.6-6.1-16.1-9.1
				C429.3,957.8,431.7,950.7,434.4,943.1z M418.8,949.7c3.9-3.6,7.8-7.2,11.7-10.8c0.2-0.1,0.4-0.2,0.8-0.3c0.1,0.5,0.2,1,0.1,1.4
				c-1,4.7-7.6,19.8-9.6,22.2c-0.2-0.4-0.5-0.8-0.6-1.2c-1-3.1-1.8-6-2.8-9C418,951,418,950.4,418.8,949.7z M416.3,952.3
				c3.1,7.8,4.8,16,6.5,24.6c-2.6-0.2-4.8-0.3-7-0.6c-0.5-0.1-1-0.9-1.2-1.5c-0.5-1.4-0.6-2.9-1-4.4c-0.4-1.4-0.9-1.6-2.2-1.1
				c-0.7,0.2-1.4,0.6-2,1.1c-0.3,0.2-0.4,0.8-0.5,1.2c0.5,0.2,0.8,0.4,1.2,0.4c0.5,0,1-0.3,1.8-0.6c0.3,1.5,0.6,2.8,0.9,4.5
				c-7.7-1.1-14.9-3-21.7-6.4C399.6,963.8,407.9,958.2,416.3,952.3z M398.1,1083.5c-2.9-2.1-5.8-4.2-9-6.5c1.8-2.5,3.5-4.8,5.6-7.5
				c1.6,4.8,2.8,9.1,4,13.5C398.5,1083.2,398.3,1083.3,398.1,1083.5z M417.2,1074c-3.2,5.2-6.6,10.1-9.9,14.8
				c-0.7-0.2-1.3-0.5-1.8-0.8c-0.3-0.1-0.5-0.3-0.8-0.5c-0.3-0.3-0.6-0.6-0.9-1c-0.2-0.4-0.4-0.9-0.6-1.4c-0.5-1.9-1-3.8-1.5-5.6
				c-0.6-1.9-1-3.7-1.6-5.6c-0.2-0.8-0.4-1.5-0.7-2.5c6.9-1.5,13.5-2.4,20.8-2.9C419.3,1070.4,418.3,1072.3,417.2,1074z M420.4,1041
				c2.7,2.8,5.3,5.7,8.1,8.5c1,1.1,1.3,2.1,0.5,3.5c-1.5,2.7-2.9,5.5-4.3,8.2c-0.2,0.4-0.5,0.6-1.1,1.4c-1.5-7.6-2.9-14.7-4.4-22
				C419.7,1040.7,420.2,1040.8,420.4,1041z M420.3,1064.5c-8,1.2-15.6,2.1-23.3,2.9c0-0.2-0.1-0.3-0.2-0.5
				c6-9.1,11.9-18.3,18.1-27.7C417.5,1047.5,419,1055.8,420.3,1064.5z M426.3,996.4c4.5,1,8.8,1.9,13.1,2.9
				c-1,2.7-11.9,13.9-15.1,15.5C423.9,1013.4,425.6,998.4,426.3,996.4z M422,1019.3c-0.1,0.7-0.1,1.5-0.3,2.5
				c-4.7-1.3-9.1-2.7-13.9-4c2.1-9.2,4.2-18.3,6.3-27.5c0.6,0.2,1.1,0.3,1.5,0.5c2.5,1.3,5,2.7,7.5,3.9c1.1,0.5,1.5,1.2,1.3,2.4
				c-0.5,3.5-0.8,7-1.3,10.6C422.7,1011.4,422.4,1015.4,422,1019.3z M431.3,1026c-2.4-1.1-4.8-2.1-7.2-3.2c-0.8-0.4-0.8-0.5-0.3-2.7
				c2.7,1.6,5.2,3.4,7.7,5.3C431.5,1025.6,431.4,1025.8,431.3,1026z M437.9,1026.9c-1.4-1.2-2.5-2.2-3.6-3.2
				c-1.2-0.9-2.2-1.9-3.4-2.8c-1.2-0.9-2.5-1.8-3.9-2.8c5.2-5,10.3-10.1,15.6-15.3C443.1,1011.4,440.7,1019,437.9,1026.9z"/>
			<path class="st8" d="M371.6,848.3c-0.1,0.4-0.1,0.9-0.3,1.2c-0.4,0.5-1,1-1.5,1.4c-2.6,2.2-5.2,4.5-7.8,6.6
				c-0.6,0.5-1.6,0.8-2.3,0.7c-1.1-0.3-0.6-1.4-0.5-2.3c0.4-5,0.8-9.9,1.1-14.9c0.1-0.9,0-1.8,0.1-3.1c-1,0.6-1.7,0.9-2.3,1.3
				c-1.8,1.3-3.6,2.7-5.4,4.1c-0.4,0.3-0.8,0.8-1.3,1c-0.4,0.1-0.9,0-1.4,0c0.1-0.4,0.1-0.9,0.3-1.3c0.2-0.3,0.5-0.5,0.8-0.8
				c2.9-2.1,5.7-4.2,8.6-6.3c0.6-0.5,1.4-1.1,2-0.4c0.4,0.5,0.7,1.4,0.6,2.1c-0.3,5.1-0.7,10.2-1.1,15.3c-0.1,0.8,0,1.5,0,2.8
				c1-0.8,1.6-1.2,2.1-1.7c1.9-1.6,3.8-3.3,5.6-4.9c0.4-0.4,0.8-0.8,1.3-1C370.6,848.1,371.2,848.3,371.6,848.3z"/>
			<path class="st8" d="M335.6,777.8c0.1,0.7,0.1,1.4,0,2.1c-0.1,0.6-0.3,1.4-1.1,1.1c-0.3-0.1-0.6-0.8-0.6-1.3
				c0-2.6-0.8-4.8-2.3-6.8c-0.3-0.4-0.7-0.9-1.1-1.2c-0.9-0.7-1.6-0.6-2,0.5c-0.4,1.3-0.5,2.8-0.7,4.2c-0.1,1.5,0,3-0.1,4.5
				c-0.1,1-0.3,2-0.5,3c-0.4,1.7-1.2,3.2-3,3.6c-1.8,0.4-3.1-0.7-4.2-2c-2-2.4-2.9-5.3-3.9-8.8c0-0.8-0.2-2.2-0.2-3.5
				c0-0.5,0.6-1.3,1-1.3c0.8-0.1,0.8,0.7,0.8,1.4c0,3.2,0.9,6.2,2.3,9c0.4,0.9,1.1,1.8,1.8,2.5c1.4,1.4,2.7,1.2,3.3-0.8
				c0.4-1.2,0.6-2.4,0.7-3.7c0.1-1.5-0.1-3,0.1-4.5c0.2-1.6,0.4-3.1,0.9-4.6c0.7-2,2.4-2.4,4.1-1.3c0.3,0.2,0.6,0.4,0.9,0.7
				C333.9,772.6,335.1,775,335.6,777.8z"/>
			<path class="st8" d="M384,866.4c0.1,0,0.2-0.1,0.2-0.2c-1.3-2.4-2.4-4.8-3.8-7.2c-0.9-1.4-2-1.6-3.1-0.6c-3,2.8-6,5.7-8.9,8.6
				c-1,1-0.9,1.7,0,2.9c1.6,1.9,3.3,3.7,5.5,4.9c1.1,0.5,2.2,0.9,3.3,1.1c3.8,0.5,7-2.2,7.1-6C384.3,868.8,384.1,867.6,384,866.4z
				 M377,874c-0.8-0.1-1.5-0.4-2.2-0.8c-2-1-3.6-2.8-5.3-4.8c3-3,5.8-5.7,8.7-8.5c0.5,0.4,0.9,0.6,1.2,0.9c1.6,2.4,2.7,5.2,3.1,8.1
				C382.8,872.4,380.4,874.6,377,874z"/>
			<path class="st8" d="M518.9,938.3c0.8-0.6,1.4-1,2-1.6c1.8-1.8,2-3.8,0.4-5.9c-0.9-1.2-2.2-2-3.7-2.1c-1.1-0.1-2.3,0-3.4,0
				c-1.6,0.2-2.1,0.7-2.1,2.4c0.1,4.8,0.3,9.5,0.5,14.2c0,0.6,0.3,1,0.6,1.8c1.7-1,0.7-2.3,0.8-3.3c0.1-1.3,0-2.4,0-3.7
				c3.3-0.6,6,0,8.2,2.1c1.1,1,1.9,2,2.9,3c0.4,0.3,0.8,0.6,1.2,1C526.9,944.2,525.2,942.3,518.9,938.3z M513.7,938.3l-0.1-7.9
				c1.6,0,3-0.1,4.4,0.1c1.5,0.1,2.5,1.3,2.8,2.7c0.2,0.7-0.1,1.3-0.4,1.8c-0.4,0.5-0.8,0.8-1.2,1.1
				C517.6,937.1,516,937.9,513.7,938.3z"/>
			<path class="st8" d="M351.1,818c-5.1-0.1-10.1,0.1-15.5,0.1c-0.2,0.3-0.6,0.7-0.9,1.1c0.5,0.3,0.9,0.8,1.5,0.8c1,0.1,2.1,0,3.2,0
				c1.1,0,1.8,0.4,2.5,1.3c0.8,1.5,1.7,2.8,2.6,4.1c1,1.4,1.1,2.7,0,4.1c-0.5,0.7-1,1.6-1.4,2.5c-0.1,0.4,0.2,0.9,0.2,1.3
				c0.5-0.2,1-0.3,1.4-0.5c0.2-0.1,0.3-0.3,0.4-0.6c2.4-4,4.7-7.9,7.1-11.9C353,818.8,352.7,817.9,351.1,818z M346.8,825.3
				c-1.4-1.6-2.3-3.3-3.3-5.2c2.3-0.5,4.2-0.5,6.3-0.1C349.3,822,348,823.4,346.8,825.3z"/>
			<path class="st8" d="M485.8,929.5c-0.6-0.5-1.1-0.8-1.4-1.2c-0.8-1-1.8-1.3-3.1-1.2c-3.2,0.3-5.5,1.8-6.7,4.9
				c-1.2,3.1-0.6,5.9,1.6,8.3c2,2.1,5,2.1,6.6-0.1c0.6-0.9,0.8-2.1,1.1-3c-1.2-1.5-3.5-0.7-3.9-3c1.9,0,3.4,0.6,4.9,1.2
				c0.3,0.1,0.5,1,0.5,1.4c-0.2,2.6-0.5,5.2-0.8,7.7c0,0.3-0.4,0.6-0.6,0.8c-1.3-0.5-0.6-1.8-1.2-2.6c-0.7,0.2-1.5,0.5-2.3,0.5
				c-3.9,0.4-7.4-2.7-8-6.9c-0.9-6,3.7-11.2,9.5-11C484.4,925.4,485.9,927,485.8,929.5z"/>
			<path class="st8" d="M505.4,932.3c0.3,3.9,0.1,7.7-1.1,11.5c-0.5,1.5-1.3,2.8-2.9,3.4c-2.1,0.8-4,0.4-5.3-1.5
				c-0.9-1.3-1.6-2.9-2-4.4c-0.8-3.6-0.4-7.2,0-10.8c0-0.3,0.1-0.7,0.1-0.8c1.5,0.1,1.3,0.9,1.3,1.6c-0.1,2.5-0.3,5.1-0.2,7.5
				c0.1,1.6,0.7,3.2,1.3,4.7c0.6,1.5,1.7,2.5,3.3,2.4c1.7-0.1,2.5-1.4,3-2.9c1-3.1,1.1-6.3,1.1-9.6c0-0.8,0.1-1.6,0.2-2.4
				c0.2,0,0.5,0,0.7,0C505.1,931.5,505.4,931.9,505.4,932.3z"/>
			<path class="st8" d="M340.8,792.3c-0.2,0.4-0.4,0.9-0.7,1c-1,0.5-2.1,0.9-3.2,1.3c-3.1,1.2-6.1,2.4-9.3,3.7
				c0.4,3.7,2.6,6.5,2.6,9.8c-0.9,0.5-1.4,0.1-1.6-0.6c-0.9-2.6-1.9-5.1-2.8-7.8c-0.6-1.8-0.3-2.3,1.4-3.1c2.1-1,4.2-1.9,6.3-2.8
				c1.3-0.5,2.6-1,3.9-1.4c0.7-0.3,1.5-0.5,2.2-0.6C340.1,791.8,340.4,792.1,340.8,792.3z"/>
			<path class="st8" d="M544.9,941.3c-0.6,0.7-0.9,1.2-1.2,1.3c-2.5,0.8-5,1.5-7.5,2.1c-1.3,0.3-2-0.3-2.4-1.6
				c-0.4-1.3-0.7-2.6-0.9-3.9c-0.5-3.3-1-6.5-1.4-9.8c-0.1-0.4,0.1-0.8,0.1-1.3c0.2,0,0.5-0.1,0.7-0.2c0.2,0.8,0.5,1.5,0.7,2.3
				c0.6,3.4,1.1,6.8,1.7,10.3c0.1,0.8,0.4,1.6,0.7,2.5C538.5,943,541.3,941.4,544.9,941.3z"/>
			<path class="st8" d="M327.3,757.3c0.1,0.3-0.2,0.8-0.5,0.9c-0.8,0.3-1.6,0.4-2.4,0.6l0,0c-3.4,0.7-6.7,1.4-10.1,2
				c-0.1,0-0.3,0.1-0.5,0.1c-0.7,0.1-1.5,0.1-1.5-0.8c0-0.4,0.7-1,1.2-1.1c4.1-0.8,8.3-1.5,12.4-2.3c0.2,0,0.5-0.1,0.7-0.1
				C326.9,756.8,327.3,757,327.3,757.3z"/>
			<path class="st8" d="M415.8,916.3L415.8,916.3c0.3-0.1,0.5-0.2,0.8-0.4C416.4,916,416.1,916.1,415.8,916.3z"/>
			<path class="st8" d="M401.1,910.4L401.1,910.4c-2.6,2.6-5.2,5.2-7.9,7.7C395.8,915.5,398.5,913,401.1,910.4z"/>
			<path class="st8" d="M374.4,757.5c-0.1,0.2-0.1,0.3-0.1,0.4c-1.5,6.4-2.8,12.8-4.2,19.2c1.3-6.4,2.7-12.8,4.1-19.2
				C374.3,757.8,374.4,757.6,374.4,757.5z"/>
			<path class="st8" d="M404.5,780c-1.9,6.2-3.8,12.5-5.7,18.7C400.7,792.5,402.5,786.3,404.5,780c0.1-0.6,0.1-1.1-0.1-1.5
				C404.6,778.9,404.6,779.4,404.5,780z"/>
			<path class="st8" d="M428.6,811.1c-3.7,4.8-7,9.1-10.4,13.5C421.5,820.3,424.9,815.9,428.6,811.1z"/>
			<path class="st8" d="M482,854.8c0,3.3-0.1,6.6-0.1,10l-0.1,0C481.9,861.4,482,858.1,482,854.8z"/>
			<path class="st8" d="M399.6,839.8c-0.2-0.4-0.4-0.9-0.6-1.3c-0.1-0.3-0.2-0.5-0.3-0.7c0.2,0.2,0.2,0.4,0.4,0.7
				C399.2,838.9,399.4,839.3,399.6,839.8z"/>
			<path class="st8" d="M473.3,910.8c-0.8,0.7-1.5,1.4-2.3,2.2l-0.1-0.1C471.7,912.2,472.5,911.5,473.3,910.8z"/>
			<path class="st8" d="M489.8,918.8c-0.8,0.2-1.5,0.2-2.1,0C488.2,919,488.9,918.9,489.8,918.8z"/>
			<path class="st8" d="M507.2,920.8c-0.4-0.1-0.8-0.1-1.3-0.1l0-0.1C506.4,920.7,506.9,920.7,507.2,920.8z"/>
			<path class="st8" d="M402.7,841.7c-0.2,0.1-0.4,0.1-0.5,0.2l0-0.1L402.7,841.7z"/>
			<path class="st8" d="M324.5,894.2c-0.4-2.4-1.1-4.9-0.9-7.4l0.1,0C323.3,889.3,324,891.7,324.5,894.2z"/>
			<path class="st8" d="M417.2,1074c-3.2,5.2-6.5,10.1-9.8,14.8l-0.1,0C410.7,1084.1,414.1,1079.2,417.2,1074z"/>
			<path class="st8" d="M440.8,895.4c-1.8,0.2-3.4,0.5-4.9,0.5c-2,0.1-2,2.5-3.4,3c-0.8-0.5-0.7-1.1-0.3-1.6
				c1.7-2.5,1.8-5.1,0.6-7.8c-0.2-0.3,0-0.8,0-1.3c1.6,0.6,1.6,0.6,2.6,6c1.8,0.1,3.6-1,5.3,0.3
				C440.8,894.7,440.8,895.1,440.8,895.4z"/>
			<path class="st8" d="M343.2,960.5c-0.2,0.2-0.3,0.5-0.5,0.6c-1.4,1-3,1.9-4.9,3.1c0.2-1.1,0.3-1.7,0.4-2.4
				c-0.1-0.2-0.2-0.2-0.3-0.4c-0.1-0.2-0.2-0.3-0.4-0.4c-0.2-0.2-0.6-0.5-0.9-0.7c-0.3-0.2-0.7-0.5-0.9-0.9
				c-0.2-0.3-0.5-0.7-0.6-1.2c1,0.3,1.6,0.3,2,0.6c1.5,1.2,3.2,1.6,5.1,1.1c0.2,0,0.5,0,0.6,0.1C343,960.1,343.1,960.3,343.2,960.5z
				"/>
			<path class="st8" d="M418.7,912.9c-0.1,0.4-0.1,0.7-0.2,0.9c0,0.2-0.1,0.3-0.1,0.6c0,0-0.1,0-0.1,0.1c-0.2,0.2-0.3,0.5-0.5,0.6
				c-0.3,0.2-0.6,0.5-1.1,0.8c-0.2,0.2-0.5,0.3-0.8,0.5l0-0.1c-0.1-0.5-0.4-1-0.2-1.2C416.4,914.2,417,912.8,418.7,912.9z"/>
			<path class="st8" d="M427.9,903.2c0.2-1.3,0.9-2.2,2.1-2.7C430.5,902.3,429.7,903.4,427.9,903.2z"/>
			<path class="st8" d="M447.3,876.4c-0.2,1-0.4,2-2.1,2c0.3-0.8,0.5-1.7,0.9-2.5c0.1-0.2,0.6-0.3,0.8-0.2
				C447.1,875.7,447.3,876.2,447.3,876.4z"/>
			<path class="st8" d="M408.2,923.7c-0.4,0.6-0.9,1.1-1.4,1.8c-0.4-0.2-0.8-0.5-0.8-0.5c0.1-0.5,0.3-1.1,0.7-1.5
				c0.3-0.3,0.8-0.4,1.3-0.6C408,923.2,408.2,923.6,408.2,923.7z"/>
			<path class="st8" d="M401.2,888.3c-0.3-1.6-0.1-2,1.8-4C403.6,886,403,887.5,401.2,888.3z"/>
			<path class="st8" d="M524.1,882.4c-2.4-1.2-4.8-2.5-7.2-3.6c-0.9-0.4-2.1-0.4-3.1-0.2c-2.1,0.6-4.1,1.4-6.1,2.1
				c-0.5,0.2-0.8,0.7-1.7,1.4c1,0.1,1.5,0.3,1.8,0.1c1.4-0.6,2.5-0.1,3.6,0.7c0.8,0.6,1.7,1.3,2.6,1.9c1.7,1.2,1.9,1.2,3.6-0.1
				c0.7-0.6,1.4-1,2-1.6c0.8-0.6,1.4-0.8,2.3-0.3c0.6,0.4,1.2,0.7,1.8,0.9c0.4,0.2,0.8-0.1,1.5-0.2
				C524.7,883.1,524.4,882.6,524.1,882.4z M511.9,881c2.4-1.4,4.5-1.2,6.5,0.4C516,884.8,515.5,884.7,511.9,881z"/>
			<path class="st8" d="M476.2,878.3c-1.2-1.5-2.5-3-3.8-4.3c-0.7-0.8-1.6-0.9-2.5-0.6c-1.8,0.7-3.6,1.5-5.3,2.2
				c-0.5,0.2-0.8,0.7-1.2,1.1c0.1,0.2,0.2,0.4,0.2,0.6c1.7-0.6,2.8,0.4,3.9,1.4c0.5,0.4,0.9,0.9,1.5,1c0.6,0.3,1.5,0.5,2.1,0.3
				c0.8-0.2,1.6-1,2.5-1.1c0.8-0.1,1.6,0.3,2.6,0.5C476.3,878.9,476.4,878.5,476.2,878.3z M467.6,876.5c2.7-2.3,4.3-1.9,5,0.6
				C470.3,879,469.9,879,467.6,876.5z"/>
			<path class="st8" d="M414.7,835.8c-0.5-1.3-1.3-2.5-1.6-3.8c-0.7-3.8-3.1-5.9-6.3-7.4c-1.6-0.7-3.2-1.6-4.7-2.4
				c-0.5-0.2-1.2-0.8-1.5,0c-0.1,0.3,0.5,1,0.9,1.4c0.5,0.4,1,0.7,1.6,0.9c1.2,0.5,1.9,1.3,1.8,2.8c-0.1,0.9,0,1.7,0,2.6
				c0,1.5,0.6,2.4,1.9,3.2c2.3,1.4,4.4,2.9,6.6,4.3c0.5,0.3,1,0.5,1.5,0.7c0.1-0.2,0.2-0.4,0.4-0.6C415.1,837,415,836.3,414.7,835.8
				z M411.2,833.5c-0.3-0.1-0.6-0.2-1-0.4c-0.2,0-0.3-0.1-0.4-0.2c-0.5-0.3-1.2-0.5-1.6-0.8c-0.5-0.3-0.9-0.5-1.2-0.8
				c-0.2-0.1-0.2-0.2-0.2-0.3c-0.3-1.3-0.3-2.7-0.5-4.3c4.4,0.8,4.8,3.9,5.6,7.1C411.7,833.7,411.4,833.6,411.2,833.5z"/>
			<path class="st8" d="M386.1,794.7c-0.3-0.9-1-1.6-1.8-2.1c-1.9-1.4-3.9-2.8-5.9-4.1c-0.4-0.2-0.9-0.4-1.4-0.5
				c-0.5,1-0.1,1.4,0.5,1.7c1.9,1.1,2,2.7,1.6,4.6c-0.1,0.6-0.2,1.3-0.3,1.9c-0.1,1.6,0.2,2,1.6,2.3c1.1,0.3,2.2,0.6,3.3,0.9
				c1.5,0.5,2.7,1.2,2.9,2.9c0.1,0.8,0.4,1.6,1.5,1.3c0.1-0.4,0.1-0.8,0.1-1.1C387.6,799.9,387,797.3,386.1,794.7z M380.4,796.7
				c0.1-1.3,0.4-2.5,0.5-3.9c3.2,0.7,4.2,1.7,4.3,5.2C383.5,797.6,382.1,797.2,380.4,796.7z"/>
			<path class="st8" d="M301,953.5c-1.1-1.3-2.1-2.5-3.4-4C300.3,949.5,301.6,951.1,301,953.5z"/>
			<path class="st8" d="M385.2,798.1c-1.7-0.4-3.1-0.8-4.8-1.3l0-0.1C382.1,797.2,383.5,797.6,385.2,798.1z"/>
		</g>
	</g>
</g>
</svg>
